<?xml version="1.0" encoding="utf-8"?>
<!-- Generator: Adobe Illustrator 14.0.0, SVG Export Plug-In . SVG Version: 6.00 Build 43363)  -->
<!DOCTYPE svg PUBLIC "-//W3C//DTD SVG 1.1//EN" "http://www.w3.org/Graphics/SVG/1.1/DTD/svg11.dtd">
<svg version="1.1" xmlns="http://www.w3.org/2000/svg" xmlns:xlink="http://www.w3.org/1999/xlink" x="0px" y="0px"
	 width="519.935px" height="383.952px" viewBox="0 0 519.935 383.952" style="enable-background:new 0 0 519.935 383.952;"
	 xml:space="preserve">
<g id="outline">
	<path style="fill:#808080;" d="M516.94,193.98c1.189-2.811,1.1-6.9,1-11c0-1.01-0.82-1.19-1-2c-0.36-2.98-1.601-5.08-3-7
		c0-0.33,0-0.67,0-1c-1.431-0.24-1.69-1.65-3-2c-1.2-2.47-3.431-3.91-6-5c-0.86-2.81-5.21-2.13-7-4c-6.421-3.58-10.62-9.38-20-10
		c-1.61-2.92-3.171-0.39-5-2c-0.261-5.74-5.091-6.91-6-12c-1.41-2.59-3.381-4.61-5-7c-0.65-3.67-3.681-4.98-6-7
		c-3.24-5.64-6.91-4.87-11-8.99c-2.94-1.4-3.78-4.89-7.99-5c-2.37-5.31-4.36-10.98-8-15c-1.04-3.63-3.13-6.21-6-8c0-0.33,0-0.67,0-1
		c-3.53-4.81-8.12-8.55-13-12c-14.28-6.23-27.931-15.13-45-22c-1.61-1.14-3.16-3.92-4.99-2c-1.92-2.42-4.44-4.23-8-5
		c-18.33-8.05-38.05-6.99-59-9.99c-0.33,0-0.66,0-1,0c-6.6-1.01-17.479-4.26-23.99-5c-5.16-2.96-11.74-0.97-15-4
		c-0.21-1.12-1.11-1.56-2-2c-4.46-5.71-10.56-5.25-17-10c-3.94-1.33-6.55-2.47-9-3c-1.99-0.01-1.27-2.73-4-2
		c-1.89,0.22-2.2-1.13-4-1c-2.41,0.41-2.17-1.83-5-1c-3.1,0.1-2.85-3.15-7-2c0.43,3.86-2.99-0.53-3.99,3c-2.09,0.56-3.24,2.86-5,1
		c0,0.33,0,0.67,0,1c-1.77-1.88-2.92,1.19-5-1c0,0.67,0,1.33,0,2c-1.13,0.21-1.56,1.11-2,2c-1.01,0-1.19,0.81-2,1
		c-1.23,4.55,2.74,3.92,2,8c-0.78,0.22-1.98,0.02-2,1c-35.5-1.5-59.64,10.92-92.99,19.99c0,0.34,0,0.67,0,1
		c-9.84,2.43-16.18,5.2-25,12c-5.28,5.06-10.77,9.89-15,16c-0.77,0.22-1.97,0.03-2,1c-1.67,1.66-3.33,3.33-5,5
		c-3.33,1.33-3.48,5.85-6.99,7c-0.34,0-0.67,0-1,0c-2.3,3.7-5.12,6.88-7,11c-5.6,7.73-11.03,15.64-14,25.99
		c-4.9,6.77-8.16,15.17-10,25c-15.48,54.01,3.62,115.9,29,147.98c2.58,3.42,5.58,6.42,8.99,9c1.2,2.14,1.22,5.45,4,6
		c4.42,2.271,8.42,10.23,12,10c1.01,0,1.19,0.81,2,1c0.56,1.44,1.56,2.44,3,3c3.18,2.82,6.43,5.57,11,7c9.09,4.81,15.33,8.41,24,12
		c1-0.01,1.19,0.81,2,1c0.28,2.05,2.67,1.99,4,3c4.67,0.99,7.86,3.46,11.99,5c5.03,0.97,10.23,3.48,15,3c0.06,0.61,0.15,1.18,1,1
		c4.31-0.46,8.55,2.72,11,1c1.66,1.37,7.24,0.31,11,2c7.39,1.7,8.93,1.16,15,2c5.44,1.72,17.37,1.65,24,2.99c0,0.34,0,0.67,0,1
		c-2.57,0.78-5.67,1-7,3c-0.61,0.06-1.19,0.149-1,1c-1.01,0-1.19,0.81-2,1c-1.02,4.359,2.06,4.6,3,7c1.89,2.53,3.5-0.92,6,1
		c0.33,0,0.66,0,1,0c0.41,1.26,1.28,2.05,3,2c0-0.33,0-0.66,0-1c1.72-0.391,2.56,1.49,2.99,0c3.37,1.76,5.13-0.67,10,0
		c0-0.33,0-0.66,0-1c1.18,0.149,2.27,1.78,3,0c2.82,0.97,5.51-2.08,10-4c1,0.01,1.19-0.811,2-1c4.42-2.57,6.57-7.431,12-9
		c0.78-0.22,1.97-0.021,2-0.99c10.27-0.8,11.99,0.32,20-2c51.471-8.229,92.92-36.479,144.98-57c5.74-0.26,7.6-4.4,11-7
		c0.33,0,0.66,0,1,0c3.59-2.81,7.04-4.62,9-11c4.399-4.59,7.27-10.72,9-17.99c1.26-1.739,3.37-2.62,3-6
		c1.34-1.989,1.899-4.76,2.99-7c0.579-2.09,2.479-2.859,2-6c2.72-2.29,2.04-7.96,5-10c3.25-0.239,6.92-6.5,11-9c0.34,0,0.67,0,1,0
		c0.529-5.47,3.63-8.37,6-12c4.699-1.1,11.939-0.89,17-4c0.77-0.22,1.97-0.02,2-1c2.46,0.141,4.819,0.15,6-1
		c4.3-1.029,8.359-2.3,11-5c1.329,0,2.659,0,4,0c-0.46-4.79,5.659-3,6-7C515.2,198.24,517.32,197.36,516.94,193.98z"/>
</g>
<g id="Layer_1">
	<g id="XMLID_2_">
		<path style="fill:#676767;" d="M498.94,207.97c1.27-0.2,4.899-2.899,5-1c-2.641,2.7-6.7,3.971-11,5c0.239-1.42,1.64-1.68,2-3
			C496.52,208.89,498.75,209.46,498.94,207.97z"/>
		<path style="fill:#727272;" d="M482.94,208.97c4,0,8,0,12,0c-0.36,1.32-1.761,1.58-2,3c-1.181,1.15-3.54,1.141-6,1
			c-0.171-1.35,5.79-1.29,2-3c-0.261,2.34-4.391,0.58-5,0c-0.181-0.01-0.36-0.01-0.551-0.01
			C483.04,209.84,482.98,209.41,482.94,208.97z"/>
		<path style="fill:#676767;" d="M483.39,209.96c0.19,0,0.37,0,0.551,0.01C483.7,210.02,483.52,210.02,483.39,209.96z"/>
		<path style="fill:#7A7A7A;" d="M462.94,217.97c3.229-6.239,20.97-7.229,22-4c-5.061,3.11-12.301,2.9-17,4c-1.33,0-2.66,0-4,0
			C463.61,217.97,463.28,217.97,462.94,217.97z"/>
		<path style="fill:#464646;" d="M472.94,149.98c1.829,1.61,3.39-0.92,5,2c-2.471,1.31-11.57-0.25-16,0c0-1,0.81-1.19,1-2
			c1.329-2.45,3.02,1.8,4-1c1.479,1.16,2.52,1.16,4,0C471.75,149.17,471.94,149.98,472.94,149.98z"/>
		<path style="fill:#8B8B8B;" d="M462.94,217.97c0.34,0,0.67,0,1,0c-0.16,4.351-9.631,12.891-13,14c1.46-1.87,0.04-6.63,2-8
			c1.199,1.45,5.52-2.42,6-5c-0.33,0-0.66,0-1,0C457.77,216.8,461.49,218.52,462.94,217.97z"/>
		<path style="fill:#7A7A7A;" d="M447.94,237.97c3.88-1.71,11.819-13.38,13-8c-4.08,2.5-7.75,8.761-11,9
			C448.69,239.19,447.9,240.53,447.94,237.97z"/>
		<path style="fill:#929292;" d="M457.94,218.97c0.34,0,0.67,0,1,0c-0.48,2.58-4.801,6.45-6,5c0.069-2.93,2.29-3.71,4-5
			C457.28,218.97,457.61,218.97,457.94,218.97z"/>
		<path style="fill:#676767;" d="M466.94,137.98c-1.41-2.59-3.381-4.61-5-7c-0.65-3.67-3.681-4.98-6-7c-3.24-5.64-6.91-4.87-11-8.99
			c-2.94-1.4-3.78-4.89-7.99-5c0.569,2.09,2.47,2.85,2,6c2.78,11.21,8.149,19.84,12.99,28.99c0.439-1.48,1.279,0.4,3,0
			c-0.181,0.85,0.39,0.95,1,1c0.189,0.81,1.01,1,1,2c0.89,0.78,2.26,1.08,4,1c0.81,0.19,1,1,2,1c1.329-2.45,3.02,1.8,4-1
			c1.479,1.16,2.52,1.16,4,0c0.81,0.19,1,1,2,1C472.68,144.24,467.85,143.07,466.94,137.98z"/>
		<path style="fill:#464646;" d="M359.96,49.99c-1.92-2.42-4.44-4.23-8-5c-18.33-8.05-38.05-6.99-59-9.99c0.43,2.09-0.68,2.64-1,4
			c3.23,1.02,2.96,1.71,4,2.99c7.04-5.35,19.25-0.52,26,3c0.45,2.79-5.45-0.78-5,2c3.21,1.94,8.85-1.51,12,2
			c-2.09,2.98-5.26-1.32-9,0c2.55,2.03,8.92,3.07,11,0c-0.32-2.35-4.74-0.59-4-4c3.95,1.31,10.19,4.57,13,3c0.76,4.89-3.9,1.48-9,1
			c-0.16,3.19,6.37,1.18,9,4c1.06-0.73,0.11-3.01,2-5c8.36-0.25,17.69,7.7,22.99,4C363.34,50.85,361.79,48.07,359.96,49.99z"/>
		<path style="fill:#464646;" d="M295.96,41.99c1.07-0.04,2.54,0.48,1,1C296.52,42.62,296.21,42.29,295.96,41.99z"/>
		<path style="fill:#464646;" d="M291.96,35c0.9,2.07-6.81,0.27-3,2c-10.22,0.4-23.4,0.12-38.99-1c-16.76-1.21-46.19-4.67-55.99-1
			c-10.02-1.87-22.71-0.98-28,3c-1.38-1.01,2.12-5.54,3-5c-0.85-2.94-3.22,0.59-5,0c0.09,1.57,2.55,0.78,2,3
			c-4.9,2.98-8.24-1.4-15,1c1.99-2.31-0.25-1.12-1-3c-21.41-1.39-33.84,11.44-51.99,9.99c-1.87,0.8-3.66,1.68-6,2
			c0.01-1.32,1.75-0.91,2-2c0-0.33,0-0.66,0-1c33.35-9.07,57.49-21.49,92.99-19.99c3.98-0.55,3.01-0.55,7,0c1.33,0,2.66,0,4,0
			c1,0,2,0,3,0c3.98,0.55,3.01,0.55,6.99,0c2,0,4,0,6,0c1.18,1.55,9.12,1.46,9,1c0.34,0,0.67,0,1,0c0.43,2.23,4.93,0.4,7,1
			c3.15,1.12,2.26,0.09,6,0c3.87,0.67,3.56,0,6,1c1,0,2,0,3,0c1.16,0.84,2.68,1.32,5,1c1.86,0.13,3.34,0.65,4,2
			c-2.72,0.62-7.94-1.27-9,1c4.67,0.11-0.71,1.83-1,3c2.47,3.24,8.73-1.26,9,0c-1.14,0.19-0.56,1,0,1c0.19-0.81,1-1,1-2
			c1.89,0.74,0.69,2.98,3,1c2.42,1.8,9.11-2.9,10-3C274.48,30.74,285.36,33.99,291.96,35z"/>
		<path style="fill:#676767;" d="M261.97,32c-1.89-0.23-2.21,1.12-4,1c-2.31,1.98-1.11-0.26-3-1c-0.01-1.33-1.75-0.92-2-2
			C256.2,30.43,261.62,28.68,261.97,32z"/>
		<path style="fill:#5A5A5A;" d="M257.97,33c1.79,0.12,2.11-1.23,4-1c-0.35-3.32-5.77-1.57-9-2c0.25,1.08,1.99,0.67,2,2
			c0,1-0.81,1.19-1,2c-0.56,0-1.14-0.81,0-1c-0.27-1.26-6.53,3.24-9,0c0.29-1.17,5.67-2.89,1-3c1.06-2.27,6.28-0.38,9-1
			c-0.66-1.35-2.14-1.87-4-2c0.03-0.98,1.22-0.78,2-1c3.26,3.03,9.839,1.04,15,4C267.08,30.1,260.39,34.8,257.97,33z"/>
		<path style="fill:#8B8B8B;" d="M252.97,26c-0.78,0.22-1.97,0.02-2,1c-2.32,0.32-3.84-0.16-5-1c0.29-1.77-4.71-3.1-2-4
			c1.79,0.62,6.14,3.75,7,2C251.86,24.44,252.76,24.88,252.97,26z"/>
		<path style="fill:#676767;" d="M250.97,24c-0.86,1.75-5.21-1.38-7-2c-2.71,0.9,2.29,2.23,2,4c-1,0-2,0-3,0c0.19-0.81,1-1,1-2
			c-2.68-2.99-7.8-3.54-10-7c0.53-1.44-3.9-2.44-1-3c0.19,1.13,1,0.55,1,0C240.41,18.75,246.51,18.29,250.97,24z"/>
		<path style="fill:#929292;" d="M243.97,24c0,1-0.81,1.19-1,2c-2.44-1-2.13-0.33-6-1c-3.04-2.63-6.26-5.07-10-7
			c-1.45-0.55-5.17,1.17-5-1c1.67,0,3.34,0,5,0c1.89-0.23,2.21,1.12,4,1c0.23-0.78,0.03-1.97,1-2c0.22,0.78,0.84,1.16,2,1
			C236.17,20.46,241.29,21.01,243.97,24z"/>
		<path style="fill:#A3A3A3;" d="M235.97,363.95c1.33,0,2.67,0,4,0c-5.43,1.569-7.58,6.43-12,9c-0.4-3.45,4.69-6.561,3-8
			c0.73-1.78,1.82-0.141,3,0C234.75,364.73,235.94,364.93,235.97,363.95z"/>
		<path style="fill:#7A7A7A;" d="M232.97,14c-2.9,0.56,1.53,1.56,1,3c-1.16,0.16-1.78-0.22-2-1c-0.97,0.03-0.77,1.22-1,2
			c-1.79,0.12-2.11-1.23-4-1c0-0.34,0-0.67,0-1c1.16,0.16,1.78-0.22,2-1c-0.81-0.19-1-1-2-1c-0.65-1.02-2.3-1.04-2-3
			c2.45,0.53,5.06,1.67,9,3C233.97,14.55,233.16,15.13,232.97,14z"/>
		<path style="fill:#9B9B9B;" d="M236.97,25c-3.74,0.09-2.85,1.12-6,0c0-0.34,0-0.67,0-1c-2.63-0.71-1.97-4.7-4-6
			C230.71,19.93,233.93,22.37,236.97,25z"/>
		<path style="fill:#BBBBBB;" d="M230.97,364.95c1.69,1.439-3.4,4.55-3,8c-0.81,0.189-1,1.01-2,1c0-0.33,0-0.66,0-1
			c-3.56-3.21,3.99-4.37,1-7c-0.33,0-0.66,0-1,0c0-0.33,0-0.66,0-1C229.05,364.25,227.89,364.25,230.97,364.95z"/>
		<path style="fill:#BBBBBB;" d="M230.97,24c0,0.33,0,0.66,0,1c-2.07-0.6-6.57,1.23-7-1c1.09-0.25,0.68-1.99,2-2
			c-1.05-2.62-4.06-3.27-8-3c-0.07,3.4,2.94,3.72,5,5c0.12,0.46-7.82,0.55-9-1c-2.42-2.41,1.34-3.74,3-5c1.59-0.09,3.82,0.48,4-1
			c0.34,0,0.67,0,1,0c-0.17,2.17,3.55,0.45,5,1C229,19.3,228.34,23.29,230.97,24z"/>
		<path style="fill:#727272;" d="M228.97,15c-0.22,0.78-0.84,1.16-2,1c-2.33,0-4.66,0-7,0c0-0.34,0-0.67,0-1
			c0.78-0.23,1.97-0.03,2-1c-1,0-1.19-0.81-2-1c1.25-2.47,5.11,3.86,7,1C227.97,14,228.16,14.81,228.97,15z"/>
		<path style="fill:#C3C3C3;" d="M226.97,365.95c2.99,2.63-4.56,3.79-1,7c-4.78-0.78-14.23,3.31-10,5c-0.73,1.78-1.82,0.149-3,0
			c-0.02-0.97-1.22-0.771-2-1c2.73-4.271,11.99-2.01,13-8c-1.29,0.04-20.96,0.7-18,8c-1.33,0-2.66,0-4,0c-0.16,1.17,0.23,1.78,1,2
			c-0.43,1.49-1.27-0.391-2.99,0c0.22-1.891-1.13-2.2-1-4c6.12-1.87,9.32-6.67,17.99-6c-0.04-1.37,0.47-2.19,1-3c2.67,0,5.34,0,8,0
			C226.31,365.95,226.64,365.95,226.97,365.95z"/>
		<path style="fill:#9B9B9B;" d="M226.97,16c0,0.33,0,0.66,0,1c-1.66,0-3.33,0-5,0c-0.33,0-0.66,0-1,0c-7.33,0-14.66,0-21.99,0
			c-2.04,1.4,0.98,3.44-1,6c-1.34,0-2.67,0-4,0c-1.56-2.53,2.29-6.57,5-8c5.41,1.92,14.03,0.62,20.99,1
			C222.31,16,224.64,16,226.97,16z"/>
		<path style="fill:#ABABAB;" d="M225.97,372.95c0,0.34,0,0.67,0,1c-4.49,1.92-7.18,4.97-10,4
			C211.74,376.26,221.19,372.17,225.97,372.95z"/>
		<path style="fill:#A3A3A3;" d="M225.97,364.95c0,0.34,0,0.67,0,1c-2.66,0-5.33,0-8,0c-3.6-0.26-4.82,1.85-8,2
			c-5.91,2.09-13.63,2.37-13.99,10c-2.5-1.92-4.11,1.53-6-1c4.48-1.51,6.45-5.54,10-8c0-0.33,0-0.66,0-1
			c2.56-0.771,5.66-0.99,6.99-3c4.15,0.27,3.9-1.311,7,0c2.34,0,4.67,0,7,0C222.64,364.95,224.31,364.95,225.97,364.95z"/>
		<path style="fill:#929292;" d="M226.97,14c-1.89,2.86-5.75-3.47-7-1c-0.66,0-1.33,0-2,0c-6.19-5.73,5.83,0.78,3-4
			c2.73-0.73,2.01,1.99,4,2C224.67,12.96,226.32,12.98,226.97,14z"/>
		<path style="fill:#C3C3C3;" d="M225.97,22c-1.32,0.01-0.91,1.75-2,2c-0.33,0-0.66,0-1,0c-2.06-1.28-5.07-1.6-5-5
			C221.91,18.73,224.92,19.38,225.97,22z"/>
		<path style="fill:#676767;" d="M221.97,14c-0.03,0.97-1.22,0.77-2,1c-1.33,0-2.66,0-4,0c0.19-0.85-0.39-0.95-1-1
			c0.43-3.86-2.99,0.53-4-3c1.36-0.31,0.83-2.5,1-4c2.83-0.83,2.59,1.41,5,1c-2.27,1.55-1.89,2.08-1,5c0.67,0,1.34,0,2,0
			c0.67,0,1.34,0,2,0C220.78,13.19,220.97,14,221.97,14z"/>
		<path style="fill:#7A7A7A;" d="M220.97,9c2.83,4.78-9.19-1.73-3,4c-0.66,0-1.33,0-2,0c-0.89-2.92-1.27-3.45,1-5
			C218.77,7.87,219.08,9.22,220.97,9z"/>
		<path style="fill:#A3A3A3;" d="M198.98,17c7.33,0,14.66,0,21.99,0c-0.18,1.48-2.41,0.91-4,1c-1.66,0-3.33,0-5,0
			c-5.27,0.06-11.91-1.25-10.99,5c-1,0-2,0-3,0C199.96,20.44,196.94,18.4,198.98,17z"/>
		<path style="fill:#8B8B8B;" d="M219.97,15c0,0.33,0,0.66,0,1c-6.96-0.38-15.58,0.92-20.99-1c-0.67,0-1.34,0-2,0
			c6.15-2.44,9.91,1.18,18.99,0C217.31,15,218.64,15,219.97,15z"/>
		<path style="fill:#CACACA;" d="M223.97,368.95c-1.01,5.99-10.27,3.729-13,8c-1.66,0-3.33,0-5,0
			C203.01,369.65,222.68,368.99,223.97,368.95z M212.97,373.95c2.55-0.11,5.15-0.19,5-3C215.11,370.76,212.52,370.83,212.97,373.95z
			"/>
		<path style="fill:#D1D1D1;" d="M217.97,370.95c0.15,2.81-2.45,2.89-5,3C212.52,370.83,215.11,370.76,217.97,370.95z"/>
		<path style="fill:#BBBBBB;" d="M209.97,367.95c3.18-0.15,4.4-2.26,8-2c-0.53,0.81-1.04,1.63-1,3c-8.67-0.67-11.87,4.13-17.99,6
			c-0.13,1.8,1.22,2.109,1,4c0,0.34,0,0.67,0,1c-1.72,0.05-2.59-0.74-3-2C197.02,370.33,206.65,372.3,209.97,367.95z"/>
		<path style="fill:#B4B4B4;" d="M211.97,18c1.67,0,3.34,0,5,0c-1.66,1.26-5.42,2.59-3,5c-2,0-4,0-6,0c-0.01-1.65-2.77-0.56-3-2
			c1.21-0.21,0.62-1.11,0-2C205.97,20.01,210.43,19.37,211.97,18z"/>
		<path style="fill:#7A7A7A;" d="M214.97,14c0.61,0.05,1.19,0.15,1,1c-9.08,1.18-12.84-2.44-18.99,0c-3.98,0.64-4.02-2.65-8-2
			c0.44-0.89,0.87-1.79,2-2c1.23,1.43,3.43,1.89,6,2C204.07,12.24,208.4,14.24,214.97,14z"/>
		<path style="fill:#5A5A5A;" d="M210.97,11c1.01,3.53,4.43-0.86,4,3c-6.57,0.24-10.9-1.76-17.99-1c0-0.33,0-0.67,0-1
			c1.66,0,3.33,0,4.99,0c-2.31-2.75-0.4-1.16-0.99-4c1-3.53,4.42,0.86,3.99-3c4.15-1.15,3.9,2.1,7,2
			C211.8,8.5,212.33,10.69,210.97,11z"/>
		<path style="fill:#B4B4B4;" d="M212.97,377.95c0,0.34,0,0.67,0,1c-4.87-0.67-6.63,1.76-10,0c-0.77-0.22-1.16-0.83-1-2
			c1.34,0,2.67,0,4,0c1.67,0,3.34,0,5,0C211.75,377.18,212.95,376.98,212.97,377.95z"/>
		<path style="fill:#ABABAB;" d="M200.98,23c-0.92-6.25,5.72-4.94,10.99-5c-1.54,1.37-6,2.01-7,1c0.62,0.89,1.21,1.79,0,2
			c0.23,1.44,2.99,0.35,3,2C203.99,23.55,204.96,23.55,200.98,23z"/>
		<path style="fill:#727272;" d="M206.97,364.95c-1.33,2.01-4.43,2.229-6.99,3c-4.26,0.66-7.59,1.18-10,0c1.33-2,4.43-2.22,7-3
			c0.48,1.78,1.06-0.431,2-1C199.22,367.48,203.15,365.02,206.97,364.95z"/>
		<path style="fill:#B4B4B4;" d="M209.97,367.95c-3.32,4.35-12.95,2.38-12.99,10c-0.34,0-0.67,0-1,0
			C196.34,370.32,204.06,370.04,209.97,367.95z"/>
		<path style="fill:#464646;" d="M201.97,12c-1.66,0-3.33,0-4.99,0c-0.98-0.03-0.78-1.23-1-2c0-0.33,0-0.67,0-1
			c1.76,1.86,2.91-0.44,5-1C201.57,10.84,199.66,9.25,201.97,12z"/>
		<path style="fill:#7A7A7A;" d="M199.98,367.95c0,0.34,0,0.67,0,1c-3.61,1.55-7.64,2.84-11,0c-0.19-0.851,0.39-0.94,1-1
			C192.39,369.13,195.72,368.61,199.98,367.95z"/>
		<path style="fill:#929292;" d="M196.98,15c0.66,0,1.33,0,2,0c-2.71,1.43-6.56,5.47-5,8c-3.99-0.55-3.02-0.55-7,0
			c0.02-0.98,1.22-0.78,2-1c0.74-4.08-3.23-3.45-2-8c0.81-0.19,0.99-1,2-1C192.96,12.35,193,15.64,196.98,15z"/>
		<path style="fill:#676767;" d="M196.98,12c0,0.33,0,0.67,0,1c-2.57-0.11-4.77-0.57-6-2c0-0.67,0-1.33,0-2c2.08,2.19,3.23-0.88,5,1
			C196.2,10.77,196,11.97,196.98,12z"/>
		<path style="fill:#8B8B8B;" d="M199.98,368.95c-3.55,2.46-5.52,6.49-10,8c-0.94-2.4-4.02-2.641-3-7c0.81-0.19,0.99-1,2-1
			C192.34,371.79,196.37,370.5,199.98,368.95z"/>
		<path style="fill:#727272;" d="M99.99,54.99c-0.29,0.58-0.77,0.97-1.34,1.28C99.1,55.87,99.55,55.44,99.99,54.99z"/>
	</g>
</g>
<g id="Layer_21">
	<path style="fill:#828282;" d="M472.94,149.98c-1,0-1.19-0.81-2-1c-7-6.41-10.7-18.9-22-18c-0.021,5.36,2.029,8.65,5,11
		c0,0.34,0,0.67,0,1c-4.5-2.84-8.771-11.21-7-17c10.439,0.23,12.689,8.65,20,12C467.85,143.07,472.68,144.24,472.94,149.98z"/>
	<path style="fill:#8B8B8B;" d="M470.94,148.98c-1.48,1.16-2.521,1.16-4,0c-1.841-3.66-12.761-15.61-13-8c0,0.34,0,0.67,0,1
		c-2.971-2.35-5.021-5.64-5-11C460.24,130.08,463.94,142.57,470.94,148.98z"/>
	<path style="fill:#929292;" d="M466.94,148.98c-0.98,2.8-2.671-1.45-4,1c-1,0-1.19-0.81-2-1c2.119-1.45-4.49-7.13-5-3
		c-0.61-0.05-1.181-0.15-1-1c0.01-1-0.811-1.19-1-2c0-0.33,0-0.66,0-1c0-0.33,0-0.66,0-1C454.18,133.37,465.1,145.32,466.94,148.98z
		"/>
	<path style="fill:#7A7A7A;" d="M461.94,130.98c1.619,2.39,3.59,4.41,5,7c-7.311-3.35-9.561-11.77-20-12c-1.771,5.79,2.5,14.16,7,17
		c0.189,0.81,1.01,1,1,2c-1.721,0.4-2.561-1.48-3,0c-4.841-9.15-10.21-17.78-12.99-28.99c1.97,0.69,2.66,2.66,2.99,4.99
		c2.359-0.27-0.091-3.72-0.99-3.99C448.22,117.38,455.04,126.88,461.94,130.98z"/>
	<path style="fill:#9B9B9B;" d="M455.94,145.98c0.51-4.13,7.119,1.55,5,3c-1.74,0.08-3.11-0.22-4-1
		C456.95,146.98,456.13,146.79,455.94,145.98z"/>
	<path style="fill:#727272;" d="M455.94,123.98c2.319,2.02,5.35,3.33,6,7c-6.9-4.1-13.721-13.6-20.99-13.99
		c0.899,0.27,3.35,3.72,0.99,3.99c-0.33-2.33-1.021-4.3-2.99-4.99c0.47-3.15-1.431-3.91-2-6c4.21,0.11,5.05,3.6,7.99,5
		C446.87,119.08,453.47,123.76,455.94,123.98z"/>
</g>
<g id="Layer_20">
	<path style="fill:#5A5A5A;" d="M339.96,47.99c-2.81,1.57-9.05-1.69-13-3c-0.74,3.41,3.68,1.65,4,4
		C336.06,49.47,340.72,52.88,339.96,47.99z"/>
	<path style="fill:#5A5A5A;" d="M359.96,49.99c-2.36,0.03-2.95-1.72-6-1c-0.1-1.57,0.13-3.46-2-3c0-0.33,0-0.66,0-1
		C355.52,45.76,358.04,47.57,359.96,49.99z"/>
	<g>
		<path style="fill:#5A5A5A;" d="M504.94,166.98c-10.96-4.89-19.71,3.1-30,2c-5.23-3.77-11.141-6.85-17-10c-0.99-4-1.061-8.93-5-10
			c0.13-1.79-1.221-2.11-1-4c-4.841-9.15-10.21-17.78-12.99-28.99c0.47-3.15-1.431-3.91-2-6c-2.37-5.31-4.36-10.98-8-15
			c-1.04-3.63-3.13-6.21-6-8c0-0.33,0-0.67,0-1c-3.53-4.81-8.12-8.55-13-12c-14.28-6.23-27.931-15.13-45-22
			c-5.3,3.7-14.63-4.25-22.99-4c-1.89,1.99-0.94,4.27-2,5c-2.63-2.82-9.16-0.81-9-4c-2.08,3.07-8.45,2.03-11,0
			c3.74-1.32,6.91,2.98,9,0c-3.15-3.51-8.79-0.06-12-2c-0.45-2.78,5.45,0.79,5-2c-6.75-3.52-18.96-8.35-26-3
			c1.07-0.04,2.54,0.48,1,1c-0.44-0.37-0.75-0.7-1-1c-1.04-1.28-0.77-1.97-4-2.99c0.32-1.36,1.43-1.91,1-4c-0.33,0-0.66,0-1,0
			c0.9,2.07-6.81,0.27-3,2c-10.22,0.4-23.4,0.12-38.99-1c-16.76-1.21-46.19-4.67-55.99-1c-10.02-1.87-22.71-0.98-28,3
			c-1.38-1.01,2.12-5.54,3-5c-0.85-2.94-3.22,0.59-5,0c0.09,1.57,2.55,0.78,2,3c-4.9,2.98-8.24-1.4-15,1c1.99-2.31-0.25-1.12-1-3
			c-21.41-1.39-33.84,11.44-51.99,9.99c-1.87,0.8-3.66,1.68-6,2c0.01-1.32,1.75-0.91,2-2c-9.84,2.43-16.18,5.2-25,12
			c-5.28,5.06-10.77,9.89-15,16c-0.77,0.22-1.97,0.03-2,1c-1.67,1.66-3.33,3.33-5,5c-3.33,1.33-3.48,5.85-6.99,7c-0.34,0-0.67,0-1,0
			c-2.3,3.7-5.12,6.88-7,11c-5.6,7.73-11.03,15.64-14,25.99c-4.9,6.77-8.16,15.17-10,25c-15.48,54.01,3.62,115.9,29,147.98
			c2.58,3.42,5.58,6.42,8.99,9c1.2,2.14,1.22,5.45,4,6c3.59-0.22,7.58,7.73,12,10c1.01,0,1.19,0.81,2,1c0.56,1.44,1.56,2.44,3,3
			c3.98,2.021,7.67,4.33,11,7c9.09,4.81,15.33,8.41,24,12c1-0.01,1.19,0.81,2,1c0.28,2.05,2.67,1.99,4,3
			c4.67,0.99,7.86,3.46,11.99,5c5.03,0.97,10.23,3.48,15,3c0.06,0.61,0.15,1.18,1,1c4.31-0.46,8.55,2.72,11,1
			c1.66,1.37,7.24,0.31,11,2c7.39,1.7,8.93,1.16,15,2c5.44,1.72,17.37,1.65,24,2.99c0,0.34,0,0.67,0,1c0.48,1.78,1.06-0.431,2-1
			c0.24,3.53,4.17,1.069,7.99,1c4.15,0.27,3.9-1.311,7,0c2.34,0,4.67,0,7,0c1.67,0,3.34,0,5,0c3.08-0.7,1.92-0.7,5,0
			c0.73-1.78,1.82-0.141,3,0c0.78-0.22,1.97-0.021,2-1c1.33,0,2.67,0,4,0c0.78-0.22,1.97-0.021,2-0.99c10.27-0.8,11.99,0.32,20-2
			c51.471-8.229,92.92-36.479,144.98-57c5.74-0.26,7.6-4.4,11-7c0.33,0,0.66,0,1,0c3.59-2.81,7.04-4.62,9-11
			c-3.61,1.73-4.36,6.32-10,6c4.31-16.34,15.31-26.01,24.99-36.99c0.579-2.09,2.479-2.859,2-6c2.72-2.29,2.04-7.96,5-10
			c-1.25,0.221-2.04,1.561-2-1c3.88-1.71,11.819-13.38,13-8c0.34,0,0.67,0,1,0c0.529-5.47,3.63-8.37,6-12c-1.33,0-2.66,0-4,0
			c-0.16,4.351-9.631,12.891-13,14c1.46-1.87,0.04-6.63,2-8c0.069-2.93,2.29-3.71,4-5c0.34,0,0.67,0,1,0c-0.171-2.17,3.55-0.45,5-1
			c3.229-6.239,20.97-7.229,22-4c0.77-0.22,1.97-0.02,2-1c-0.171-1.35,5.79-1.29,2-3c-0.261,2.34-4.391,0.58-5,0
			c-0.24,0.05-0.421,0.05-0.551-0.01c-9.27-0.2-24.399,1.1-28.449,9.01c-1.95,2.61-0.311-2.85,0-4c0-0.33,0-0.66,0-1
			c-0.141-4.14,0.279-7.72,2-10c0-0.66,0-1.33,0-2c0.34,0,0.67,0,1,0c-1.091-6.56,3.25-2.5,7-2.989c0.34,0,0.67,0,1,0
			c1.5,0.17,3.689-0.36,4,0.989c-2.7,0.971-5.71,1.62-8,3c4.569-0.76,10.369-0.29,11-4.989c-2,0-4,0-6,0c0-0.341,0-0.671,0-1
			c-3.74,0.069-6.91-0.431-9-2c0-0.671,0-1.341,0-2c0.27-3.4-0.771-8.11,1-10c-0.04-1.38,0.47-2.2,1-3c-0.971-0.03-0.771-1.23-1-2
			c0-0.34,0-0.67,0-1c0-0.34,0-0.67,0-1c0-0.67,0-1.33,0-2c4.43-2.12,14.59,1.32,17,4c-2.33-0.74-5.631-0.7-8,1
			c5.6,2.22,9.069-0.88,15-1c0.689-4.03-4.21-2.46-4-6C485.76,167.35,501.1,166.4,504.94,166.98z"/>
		<path style="fill:#5A5A5A;" d="M488.94,163.98c-6.631-2.37-14.591-3.41-19-8c11.77-9.12,20.229,12.15,28,7c0-0.33,0-0.67,0-1
			c-6.421-3.58-10.62-9.38-20-10c-2.471,1.31-11.57-0.25-16,0c0-1,0.81-1.19,1-2c-1,0-1.19-0.81-2-1c-1.74,0.08-3.11-0.22-4-1
			C462.06,157.73,475.91,171.79,488.94,163.98z"/>
	</g>
</g>
<g id="Layer_18">
	<path style="fill:#676767;" d="M368.95,65.99c2.47-3.56,12.229-2.2,13,2C377.5,67.45,372.94,67.01,368.95,65.99z"/>
	<path style="fill:#464646;" d="M373.95,60.99c-6.79,1.79-12.05,0.92-16.99,1c0.25-2.07,4.39-0.27,5-2c-3.8-2.54-8.61-4.06-14-5
		C354.98,50.98,365.16,60.2,373.95,60.99z"/>
	<path style="fill:#676767;" d="M270.97,41c-2.21,2.77-7.13-0.15-10,0C262.35,39.03,269.45,39.78,270.97,41z"/>
	<path style="fill:#464646;" d="M207.97,36c-0.46,2.8-9.9,0.83-12.99,0C197.9,33.47,204.6,35.66,207.97,36z"/>
	<path style="fill:#464646;" d="M189.98,39C183.78,41.63,177.16,34.92,189.98,39L189.98,39z"/>
	<path style="fill:#676767;" d="M497.94,161.98c0,0.33,0,0.67,0,1c-7.771,5.15-16.23-16.12-28-7c4.409,4.59,12.369,5.63,19,8
		c-13.03,7.81-26.881-6.25-32-16c0.01-1-0.811-1.19-1-2c-0.61-0.05-1.181-0.15-1-1c-1.721,0.4-2.561-1.48-3,0
		c-4.841-9.15-10.21-17.78-12.99-28.99c0.47-3.15-1.431-3.91-2-6c-2.37-5.31-4.36-10.98-8-15c-1.04-3.63-3.13-6.21-6-8
		c0-0.33,0-0.67,0-1c-3.53-4.81-8.12-8.55-13-12c-7.351-0.8-17.44-3.68-23-3c2.42,2.25,4.75,4.58,7,7
		c-12.34,0.17-26.021-3.2-39.99-6c2.57-3.48,7.45-1.14,13.99-2c-0.771-7.3-14.29-5.8-19.99-5c-6.69-3.97-18.15-3.18-23-9
		c-1.18,1.15-3.54,1.13-6,1c-1.16-1.48-1.16-2.52,0-4c-18.87-3.22-39.88-2.19-57.99-8c-15.5,1.92-18.72-7.36-31-4.99
		c1.45,1.54,3.9,2.09,7,1.99c-11.61,4.92-23.64-3.61-37.99-2.99c-6.11,0.25-9.51,1.5-17,1c-10.92-0.74-24.78,2.65-32,1.99
		c-11.14-1.01-26.32-1.92-34.99,5c-2.92-6.48-12.78,0.41-17,2c2.9,1.53,12.28,0.99,14-2c1.67,7.03-13.81,5.52-19,9
		c0.84-1.16,1.32-2.68,1-5c-10.1,0.24-17.89,2.78-24,7c-0.78-0.22-1.16-0.83-1-2c-5.28,5.06-10.77,9.89-15,16
		c-0.77,0.22-1.97,0.03-2,1c-1.67,1.66-3.33,3.33-5,5c-3.33,1.33-3.48,5.85-6.99,7c-0.34,0-0.67,0-1,0c-2.3,3.7-5.12,6.88-7,11
		c-5.6,7.73-11.03,15.64-14,25.99c-4.9,6.77-8.16,15.17-10,25c-15.48,54.01,3.62,115.9,29,147.98c2.58,3.42,5.58,6.42,8.99,9
		c1.2,2.14,1.22,5.45,4,6c3.59-0.22,7.58,7.73,12,10c1.01,0,1.19,0.81,2,1c0.56,1.44,1.56,2.44,3,3c3.98,2.021,7.67,4.33,11,7
		c9.09,4.81,15.33,8.41,24,12c1-0.01,1.19,0.81,2,1c0.28,2.05,2.67,1.99,4,3c4.67,0.99,7.86,3.46,11.99,5c5.03,0.97,10.23,3.48,15,3
		c0.06,0.61,0.15,1.18,1,1c4.31-0.46,8.55,2.72,11,1c1.66,1.37,7.24,0.31,11,2c7.39,1.7,8.93,1.16,15,2c5.29,0.23,17-2.74,25-2
		c3.28,0.3,10.84,1.69,5.99,4c3.16,0.69,13.02-1.75,10,1.99c2.34,0,4.67,0,7,0c3.31-2.61,12.77-4.66,13,0c0.78-0.22,1.97-0.021,2-1
		c-1.12-0.21-1.56-1.11-2-1.99c2.39,0.6,7.26-1.26,8,1c10.27-0.8,11.99,0.32,20-2c11.34-10.35,28.29-9.53,43.99-15
		c20.61-7.2,40.97-20.72,60.99-27c2.069-1.76,0.88-3.1,2-4c11.39,0.63,27.34-13.38,38-11c5.74-0.26,7.6-4.4,11-7c0.33,0,0.66,0,1,0
		c3.59-2.81,7.04-4.62,9-11c-3.61,1.73-4.36,6.32-10,6c4.31-16.34,15.31-26.01,24.99-36.99c0.579-2.09,2.479-2.859,2-6
		c2.72-2.29,2.04-7.96,5-10c-1.25,0.221-2.04,1.561-2-1c3.88-1.71,11.819-13.38,13-8c0.34,0,0.67,0,1,0c0.529-5.47,3.63-8.37,6-12
		c-1.33,0-2.66,0-4,0c-0.16,4.351-9.631,12.891-13,14c1.46-1.87,0.04-6.63,2-8c0.069-2.93,2.29-3.71,4-5c-0.21-1.21-1.11-0.609-2,0
		c4.05-7.91,19.18-9.21,28.449-9.01c-0.35-0.12-0.409-0.55-0.449-0.99c-0.671,0-1.33,0-2,0c-11.23,0.221-16.341,0.38-25,3
		c-0.221,0.78-0.021,1.98-1,2c-0.141-4.14,0.279-7.72,2-10c0-0.66,0-1.33,0-2c0.34,0,0.67,0,1,0c0.31,1.36,2.51,0.83,4,1
		c4.569-0.76,10.369-0.29,11-4.989c-2,0-4,0-6,0c0-0.341,0-0.671,0-1c-3.74,0.069-6.91-0.431-9-2c0-0.671,0-1.341,0-2
		c0.27-3.4-0.771-8.11,1-10c-0.04-1.38,0.47-2.2,1-3c-0.971-0.03-0.771-1.23-1-2c4.02-0.69,5.71,0.96,9,1c5.6,2.22,9.069-0.88,15-1
		c0.689-4.03-4.21-2.46-4-6c6.819-4.63,22.159-5.58,26-5c0-0.33,0-0.67,0-1C504.08,163.17,499.73,163.85,497.94,161.98z
		 M98.65,56.27c0.45-0.4,0.9-0.83,1.34-1.28C99.7,55.57,99.22,55.96,98.65,56.27z"/>
</g>
<g id="Layer_17">
	<path style="fill:#B4B4B4;" d="M77.99,330.96c-4.57-1.43-7.82-4.18-11-7C70.97,325.98,74.66,328.29,77.99,330.96z"/>
	<path style="fill:#CACACA;" d="M61.99,319.96c-3.58,0.23-7.58-7.729-12-10C53.58,309.74,57.57,317.69,61.99,319.96z"/>
	<path style="fill:#727272;" d="M455.94,210.97c0,0.34,0,0.67,0,1c8.659-2.62,13.77-2.779,25-3
		C473.59,206.64,461.03,207.72,455.94,210.97z"/>
	<path style="fill:#727272;" d="M328.96,62.99c-2.57-3.12-10.99-5.64-15-4c3.14,0.86,4.22,3.78,8,4c0.67,0,1.33,0,2,0
		C323.51,64.62,329.41,64.63,328.96,62.99z"/>
	<path style="fill:#727272;" d="M342.96,66.99c0,0.67,0,1.33,0,2c-1.72-1.72-3.93,1.47-4-3C340.54,66.08,342.77,65.51,342.96,66.99z
		"/>
	<path style="fill:#5A5A5A;" d="M327.96,65.99c-2.37,3.26-5.67-0.92-8-1C321.78,62.28,325.99,65.55,327.96,65.99z"/>
	<path style="fill:#5A5A5A;" d="M304.96,62.99c0,1,0,2,0,3c-2.84-1.48-5.07,1.31-6-3C302.11,64.11,301.23,63.08,304.96,62.99z"/>
	<path style="fill:#727272;" d="M269.97,49.99c3.55,0.12,8.05-0.72,7.99,3C274.87,52.43,270.36,53.27,269.97,49.99z"/>
	<path style="fill:#727272;" d="M504.94,166.98c-10.96-4.89-19.71,3.1-30,2c-5.23-3.77-11.141-6.85-17-10c-0.99-4-1.061-8.93-5-10
		c0.13-1.79-1.221-2.11-1-4c-4.841-9.15-10.21-17.78-12.99-28.99c0.47-3.15-1.431-3.91-2-6c-2.37-5.31-4.36-10.98-8-15
		c-1.04-3.63-3.13-6.21-6-8c0-0.33,0-0.67,0-1c-4.54-4.88-16.851-8.95-23-6c-2.12,0.32,1.43,3.09,2,4c-5.86-0.84-20.21-8.18-28-2
		c-12.53-0.05-23.9-4.17-32.99-2c-2.51-3.29-12.54-0.29-14-7c-3.13-0.09-4.18,3.37-9,4c-20.17-9.83-54.42-5.57-72.99-17
		c4.9,1.91,14.95,1.96,21-2c-0.04-3.29-2.85-3.82-6-4c0.18-1.48,2.41-0.91,4-1c-1.08-5.68-11.81-3.26-14-5c-1.28,3.95,2.74,2.6,4,4
		c-7.74,1.59-16.71-0.7-22,2c-2.71-0.9,2.29-2.23,2-4c-8.24-0.2-18.11-3.54-28-5c0.39,4.61,8.61,1.39,9,6
		c-4.41,0.92-10.38,0.29-11,5c-10.87,0.21-15.97-5.36-21.99-10c-10.02-1.69-13.28,3.39-22,3c4.63-4.41,10.85-1.1,15-6
		c-13.75-6.22-30.73,5.33-41,6c-1.16,0.17-1.78-0.22-2-1c1,0,2,0,3,0c1.17,0.17,1.78-0.22,2-1c0.89-0.44,1.79-0.87,2-2
		c3.34-0.61,2.02-4.35-2-3c-1,0-2,0-3,0c-3.07,0.26-4.49,2.17-7,3c0.31,1.36,2.51,0.83,4,1c0.85-0.18,0.95,0.39,1,1
		c-2.76-0.17-3.43,1.54-2,3c0,0.34,0,0.67,0,1c-0.33,0-0.66,0-1,0c-9.16-6.69-16.95,3.81-27.99,4c-0.34,0-0.67,0-1,0
		c-0.29,0.58-0.77,0.97-1.34,1.28c-0.99,0.89-1.99,1.69-3.01,2.39c-12.54,8.68-27.05,4.09-41.65,13.33c-0.77,0.22-1.97,0.03-2,1
		c2.76,1.26-5.32,9.34-5,5c-3.33,1.33-3.48,5.85-6.99,7c-0.34,0-0.67,0-1,0c-2.3,3.7-5.12,6.88-7,11c-5.6,7.73-11.03,15.64-14,25.99
		c-4.9,6.77-8.16,15.17-10,25c-15.48,54.01,3.62,115.9,29,147.98c2.58,3.42,5.58,6.42,8.99,9c1.2,2.14,1.22,5.45,4,6
		c3.59-0.22,7.58,7.73,12,10c1.01,0,1.19,0.81,2,1c0.56,1.44,1.56,2.44,3,3c3.98,2.021,7.67,4.33,11,7c9.09,4.81,15.33,8.41,24,12
		c1-0.01,1.19,0.81,2,1c0.28,2.05,2.67,1.99,4,3c4.67,0.99,7.86,3.46,11.99,5c-1.41-3.59,13.53-0.25,15,3c0.06,0.61,0.15,1.18,1,1
		c0.8-4.17,9.42-0.54,11,1c1.66,1.37,7.24,0.31,11,2c-3.61-4.57,22.08-0.87,29-1c4.35-0.65,11.3,1.3,14-1c0.33,0,0.66,0,0.99,0
		c0.57-0.24,1.23-0.33,1.97-0.3c4.22,0.13,10.85,3.82,15.03,1.3c1.37,0.86,7.56,0.15,10-1c11.2-0.13,19.24-3.43,29-5
		c2.89,0.56-1.54,1.56-1,3c30.94-8.39,67.08-11.58,82.99-35c5.32-1.01,9.07-3.59,13-6c0.33,0,0.66,0,1,0
		c9.96-2.03,19.62-4.38,27.99-8c-0.69,0.81-1.55,2.74,0,3c5.77-5.229,16.8-5.2,22-11c3.27,5.29,11.72-2.45,14-1c0.33,0,0.66,0,1,0
		c3.59-2.81,7.04-4.62,9-11c-3.61,1.73-4.36,6.32-10,6c4.31-16.34,15.31-26.01,24.99-36.99c0.579-2.09,2.479-2.859,2-6
		c2.72-2.29,2.04-7.96,5-10c-1.25,0.221-2.04,1.561-2-1c3.88-1.71,11.819-13.38,13-8c0.34,0,0.67,0,1,0c0.529-5.47,3.63-8.37,6-12
		c-1.33,0-2.66,0-4,0c-0.16,4.351-9.631,12.891-13,14c1.46-1.87,0.04-6.63,2-8c0.069-2.93,2.29-3.71,4-5c-0.21-1.21-1.11-0.609-2,0
		c-1.95,2.61-0.311-2.85,0-4c0-0.33,0-0.66,0-1c-0.141-4.14,0.279-7.72,2-10c0-0.66,0-1.33,0-2c0.34,0,0.67,0,1,0
		c-1.091-6.56,3.25-2.5,7-2.989c0.34,0,0.67,0,1,0c1.5,0.17,3.689-0.36,4,0.989c-2.7,0.971-5.71,1.62-8,3
		c4.569-0.76,10.369-0.29,11-4.989c-2,0-4,0-6,0c0-0.341,0-0.671,0-1c-3.74,0.069-6.91-0.431-9-2c0-0.671,0-1.341,0-2
		c0.27-3.4-0.771-8.11,1-10c-0.04-1.38,0.47-2.2,1-3c-0.971-0.03-0.771-1.23-1-2c0-0.34,0-0.67,0-1c0-0.34,0-0.67,0-1
		c0-0.67,0-1.33,0-2c4.43-2.12,14.59,1.32,17,4c-2.33-0.74-5.631-0.7-8,1c5.6,2.22,9.069-0.88,15-1c0.689-4.03-4.21-2.46-4-6
		C485.76,167.35,501.1,166.4,504.94,166.98z"/>
	<path style="fill:#5A5A5A;" d="M458.94,173.98c4.35,0.14,7.05,4.2,0,3c0-0.34,0-0.67,0-1
		C458.94,175.31,458.94,174.65,458.94,173.98z"/>
</g>
<g id="Layer_16">
	<path style="fill:#7A7A7A;" d="M157.98,44.99c1.84-2.16,5.89-2.1,10-2C167.75,46.62,160.39,46.68,157.98,44.99z"/>
	<path style="fill:#676767;" d="M150.98,47.99c1.56,3.56-3.4,0.61-3,3c-1,0-2,0-3,0c-1.57-0.09-3.46,0.14-3-2
		C145.85,49.53,146.86,47.21,150.98,47.99z"/>
	<path style="fill:#7A7A7A;" d="M101.99,54.99c7.02-0.09-2.88,6.09-6.35,3.67c1.02-0.7,2.02-1.5,3.01-2.39
		c0.57-0.31,1.05-0.7,1.34-1.28c0.33,0,0.66,0,1,0C101.32,54.99,101.65,54.99,101.99,54.99z"/>
	<path style="fill:#7A7A7A;" d="M517.94,182.98c0-1.01-0.82-1.19-1-2c-0.36-2.98-1.601-5.08-3-7c0-0.33,0-0.67,0-1
		c-1.431-0.24-1.69-1.65-3-2c-1.2-2.47-3.431-3.91-6-5c0,0.33,0,0.67,0,1c-3.841-0.58-19.181,0.37-26,5c-0.21,3.54,4.689,1.97,4,6
		c-5.931,0.12-9.4,3.22-15,1c-3.29-0.04-4.98-1.69-9-1c0-0.34,0-0.67,0-1c0-0.34,0-0.67,0-1c-1.48-9.51-2.261-19.74-6-27
		c0.13-1.79-1.221-2.11-1-4c-4.841-9.15-10.21-17.78-12.99-28.99c0.47-3.15-1.431-3.91-2-6c-2.37-5.31-4.36-10.98-8-15
		c-1.04-3.63-3.13-6.21-6-8c-4.24-2.76-11.16-2.85-16-5c0.22,3.66,1.37,3.84,0,7c-6.41,2.13-9.28-3.67-18-6
		c4.47,10.87,15.729,14.93,24,22c-2.78,5.74,4.41,7.56,4,14c-7.41-3.57-8.65-11.48-16-14c-1.9-0.66-4.8,1.21-7,1
		c-6.76-0.67-12.87-4.29-20-6c-0.58,5.91,6.56,4.11,7,9c-3.78-3.23-14.55-4.76-13-10c0.17-2.07,5.18-2.53,7-2
		c-0.63-5.7-8.92-3.74-10-9c8.729,2.81,18.06,8.22,25,4c-6.7-6.85-18.62-7.17-28.99-8c-0.87,1.8-2.2,3.13-4,4
		c-11.03-0.33-19.46-5.74-29-7c-12.26-1.62-15.27-2.38-24-8c-0.59-0.38-3.77-0.95-4-1c-12.79-2.51-31.22,3.93-42.99-3
		c0.2-0.69,0.71-1.07,1.63-1.03c-7.97-0.75-13.86-3-24.63-2.97c0.24-1.43,1.65-1.68,2-3c-18.07-9.25-45.76,1.52-57.99-15
		c-7.81,3.52-19.89,2.78-30,4c-1,0-2,0-3,0c0,0.34,0,0.67,0,1c-1,0-2,0-3,0c-4.26-0.07-6.99-1.67-12-1c-0.33,0-0.66,0-1,0
		c-6.97-0.31-13.29,0.04-16.99,3c-0.34,0-0.67,0-1,0c-5.23,0.45-5.31,6.03-9,8c-2.32-0.32-3.84,0.16-5,1
		c-11.87-5.66-18.65,22.85-37,12c-6.72,3.61-14.01,6.66-18.99,12c-0.98-0.03-0.78-1.22-1-2c-0.34,0-0.67,0-1,0
		c-2.3,3.7-5.12,6.88-7,11c-5.6,7.73-11.03,15.64-14,25.99c-4.9,6.77-8.16,15.17-10,25c-15.48,54.01,3.62,115.9,29,147.98
		c2.58,3.42,5.58,6.42,8.99,9c1.2,2.14,1.22,5.45,4,6c3.59-0.22,7.58,7.73,12,10c1.01,0,1.19,0.81,2,1c0.56,1.44,1.56,2.44,3,3
		c3.98,2.021,7.67,4.33,11,7c9.09,4.81,15.33,8.41,24,12c1-0.01,1.19,0.81,2,1c0.28,2.05,2.67,1.99,4,3c0.3-2.31-2.89-1.11-3-3
		c24.24,9.1,50.15,12.33,80.99,13c0.61,0.05,1.18,0.14,1,1c4.35-0.65,11.3,1.3,14-1c0.33,0,0.66,0,0.99,0
		c0.57-0.24,1.23-0.33,1.97-0.3c6.39-1.19,10.86-4.29,19.03-3.7c0,0.33,0,0.66,0,1c-2.32-0.32-3.84,0.16-5,1
		c-4.88-0.14-4.97,4.43,1,3c1.37,0.86,7.56,0.15,10-1c33.419-9.58,78.36-7.64,98.99-30c-4.979,0.36-7.87,2.8-13,3
		c10.29-7.71,24.16-11.84,38-16c0.33,0,0.66,0,1,0c9.54-5.12,23.64-5.68,30.99-13c-4.101-1.37-8.16,2.42-10,0
		c1.64-5.69,10.62-4.05,13-9c-1.78-0.59-4.15,2.93-5,0c8.01-3.65,15.859-7.47,22-13c6.46,3.69,15.41-12.49,20-13.99
		c-5.891,11.771-15.3,20.03-25,27.99c-3.57-1.78-9.82,1.18-11,5c10.88,0.07,21.55-11.9,30-16c-1.7,3.99-9.63,7.01-8,11
		c3.609-2.62,0.41,2.11,0,4c3.67-0.32,5.53-2.46,9-3c0.28,1.62-0.95,1.72-1,3c3.59-2.81,7.04-4.62,9-11
		c4.399-4.59,7.27-10.72,9-17.99c1.26-1.739,3.37-2.62,3-6c1.34-1.989,1.899-4.76,2.99-7c0.579-2.09,2.479-2.859,2-6
		c2.72-2.29,2.04-7.96,5-10c-1.25,0.221-2.04,1.561-2-1c3.88-1.71,11.819-13.38,13-8c0.34,0,0.67,0,1,0c0.529-5.47,3.63-8.37,6-12
		c-1.33,0-2.66,0-4,0c-0.16,4.351-9.631,12.891-13,14c1.46-1.87,0.04-6.63,2-8c0.069-2.93,2.29-3.71,4-5c-0.21-1.21-1.11-0.609-2,0
		c-1.95,2.61-0.311-2.85,0-4c0-0.33,0-0.66,0-1c-0.141-4.14,0.279-7.72,2-10c0.189,1.49,2.42,0.92,4,1c-1.03,2.641-3.96,3.37-5,6
		c5.09-3.25,17.649-4.33,25-2c0.67,0,1.329,0,2,0c4,0,8,0,12,0c1.579-0.08,3.81,0.49,4-1c1.27-0.2,4.899-2.899,5-1
		c1.329,0,2.659,0,4,0c-0.46-4.79,5.659-3,6-7c1.26-1.729,3.38-2.609,3-5.989C518.13,191.17,518.04,187.08,517.94,182.98z
		 M461.94,202.97c-1.49-0.17-3.69,0.36-4-1c-1.091-6.56,3.25-2.5,7-2.989c0.22-0.78,0.84-1.171,2-1c2,0,4,0,6,0
		C472.31,202.68,466.51,202.21,461.94,202.97z"/>
	<path style="fill:#7A7A7A;" d="M319.96,59.99c1.81,0.06,8.95,2.49,4,3c-0.67,0-1.33,0-2,0C321.61,61.68,320.2,61.42,319.96,59.99z"
		/>
	<path style="fill:#828282;" d="M136.98,41.99c4.02-1.35,5.34,2.39,2,3c0.18-1.63-6.54-2.01-5,1c-1.12-0.21-1.55-1.11-2-2
		C133.76,43.44,136.14,43.48,136.98,41.99z"/>
	<path style="fill:#8B8B8B;" d="M133.98,45.99c-1.54-3.01,5.18-2.63,5-1c-0.21,1.13-1.11,1.56-2,2
		C135.7,46.94,135.6,45.71,133.98,45.99z"/>
	<path style="fill:#7A7A7A;" d="M133.98,41.99c1,0,2,0,3,0c-0.84,1.49-3.22,1.45-5,2c0.45,0.89,0.88,1.79,2,2
		c1.62-0.28,1.72,0.95,3,1c-0.22,0.78-0.83,1.17-2,1c-0.16-1.17-1.82-0.84-3-1c-0.05-0.61-0.15-1.18-1-1
		C130.11,42.78,133.58,43.92,133.98,41.99z"/>
	<path style="fill:#5A5A5A;" d="M134.98,47.99c-1,0-2,0-3,0c0.22,0.78,0.84,1.17,2,1c-0.18,1.48-2.41,0.92-4,1
		c-1.43-1.46-0.76-3.17,2-3C133.16,47.15,134.82,46.82,134.98,47.99z"/>
</g>
<g id="Layer_15">
	<path style="fill:#828282;" d="M463.94,217.97c-0.16,4.351-9.631,12.891-13,14c1.46-1.87,0.04-6.63,2-8c0.069-2.93,2.29-3.71,4-5
		c-0.21-1.21-1.11-0.609-2,0c-1.95,2.61-0.311-2.85,0-4c0-0.33,0-0.66,0-1c0.979-0.02,0.779-1.22,1-2c0-0.33,0-0.66,0-1
		c1.04-2.63,3.97-3.359,5-6c-1.58-0.08-3.811,0.49-4-1c0-0.66,0-1.33,0-2c0.34,0,0.67,0,1,0c-1.091-6.56,3.25-2.5,7-2.989
		c0.22-0.78,0.84-1.171,2-1c0-0.341,0-0.671,0-1c-3.74,0.069-6.91-0.431-9-2c0-0.671,0-1.341,0-2c0.27-3.4-0.771-8.11,1-10
		c-0.04-1.38,0.47-2.2,1-3c-0.971-0.03-0.771-1.23-1-2c0-0.34,0-0.67,0-1c0-0.34,0-0.67,0-1c-1.48-9.51-2.261-19.74-6-27
		c0.13-1.79-1.221-2.11-1-4c-4.841-9.15-10.21-17.78-12.99-28.99c0.47-3.15-1.431-3.91-2-6c-2.37-5.31-4.36-10.98-8-15
		c-4.49-4.95-10.2-9.18-17-4c3.68,13.32,18.649,19.54,19,32.99c-5.8-0.53-5.681-6.99-10-8.99c6.04,14.28,10.75,29.91,17,43.99
		c-10.62-21.43-22.141-44.84-46-49.99c-1.42,5.09,5.43,1.91,4,7c-4.23,2.13-8.2-0.81-12-2c-3.26-0.27-2.12,3.88-5,4
		c-32.87,5.27-41.061-19.38-63.99-27c0.53-2.62-4.8-7.48,0-8c-4.38-2.62-9.3-4.7-15-6c1.73,5.53,9.35,12.05,13,16
		c-10.14,1.79-19.99-5.34-27-10c3.65-3.52,0.55-7.25-5-7c-8.9,5.51-20.229,9.36-30.99,6c-3.89-1.22-6.27-5.8-10-7
		c-11.49-3.68-24.23-3.44-34-9c-1.69-8.67-13.21-7.48-20.99-10c-3.8-1.23-6.87-4.34-11-5c-9.39-1.49-18.86,1.83-29,1c-1,0-2,0-3,0
		c0,0.34,0,0.67,0,1c-0.33,0-0.66,0-1,0c-9.64,0.36-20.9-0.9-28.99,1c-0.34,0-0.67,0-1,0c-2.96,2.05-5.21,4.79-7,8
		c-0.34,0-0.67,0-1,0c-0.34,0-0.67,0-1,0c-2.32-0.32-3.84,0.16-5,1c-19.84,5.16-22.62,27.9-44,24c-4.41,5.59-15.66,9.66-19.99,12
		c0.61-0.93,2.32-3.69-1-3c-5.6,7.73-11.03,15.64-14,25.99c-4.9,6.77-8.16,15.17-10,25c-15.48,54.01,3.62,115.9,29,147.98
		c2.58,3.42,5.58,6.42,8.99,9c1.2,2.14,1.22,5.45,4,6c3.59-0.22,7.58,7.73,12,10c1.01,0,1.19,0.81,2,1c1.67,0,3.33,0,5,0
		c8.59,9.89,24.18,12.28,35,22c-1.12,0.1-1.56-1.46-2,0c1-0.01,1.19,0.81,2,1c3.97-3.02,14.53,6.53,15,1
		c20.41,13.16,46.08,4.79,66.99,12c0.61,0.05,1.18,0.14,1,1c4.35-0.65,11.3,1.3,14-1c-1.5-0.17-3.7,0.35-4-1
		c10.66,0.03,22.2-7.56,29.99-4c-0.24,1.75-1.72,2.28-4,2c-2.32-0.32-3.84,0.16-5,1c0.01,1-0.81,1.19-1,2c19.11,0.9,32.24-9.5,46-11
		c4.141-0.46,7.221,1.92,11,1c7-1.72,11.4-8.71,14.99-12c8.34-7.65,21.99-16.46,33-15c-2.58,1.42-5.66,2.34-6,6
		c17.36-9.93,39.57-10.67,53.99-22c-3.59-8.65-13.9,5.32-16.99,0c9.1-4.1,22.56-6.12,29.99-15c-0.83-6.979,12.54-12.12,20-11
		c13.92-6.729,24.05-17.27,31-30.99c-0.851,5.82-2.681,10.65-5,15c7.37-2.689,9.87-7.5,15.99-13c2.72-2.29,2.04-7.96,5-10
		c-1.25,0.221-2.04,1.561-2-1c3.88-1.71,11.819-13.38,13-8c0.34,0,0.67,0,1,0c0.529-5.47,3.63-8.37,6-12
		C466.61,217.97,465.28,217.97,463.94,217.97z"/>
	<path style="fill:#727272;" d="M365.95,108.99c0.729,3.05-1.72,2.94-1,6c-4.16-3.1-18.061-1.57-20.99-11
		C350.04,108.95,360.58,103.32,365.95,108.99z"/>
	<path style="fill:#727272;" d="M318.96,89.99c1.95-3.2,10.29-1.04,10,4C325.78,92.51,321.17,92.44,318.96,89.99z"/>
	<path style="fill:#828282;" d="M486.06,178.36c-0.029,0.19-0.069,0.4-0.119,0.62c-0.131,0.01-0.25,0.02-0.36,0.05
		C485.73,178.8,485.89,178.58,486.06,178.36z"/>
	<path style="fill:#828282;" d="M485.58,179.03c-0.22,0.31-0.44,0.63-0.64,0.95C484.8,179.31,485.13,179.1,485.58,179.03z"/>
	<path style="fill:#828282;" d="M442.94,254.97c-9.681,10.98-20.681,20.65-24.99,36.99c5.64,0.32,6.39-4.27,10-6
		c4.399-4.59,7.27-10.72,9-17.99c1.26-1.739,3.37-2.62,3-6C441.29,259.98,441.85,257.21,442.94,254.97z"/>
</g>
<g id="Layer_14">
	<path style="fill:#8B8B8B;" d="M249.97,339.96C255.92,334.44,261.01,339.52,249.97,339.96L249.97,339.96z"/>
	<path style="fill:#7A7A7A;" d="M345.96,299.96c2.89,2.96-3.22,5.4-6,6C340.84,302.84,344.67,302.68,345.96,299.96z"/>
	<path style="fill:#8B8B8B;" d="M440.95,137.98c-5.141-0.82-6.72-0.41-10-4c1.77,15.22,11.68,22.32,10,41
		c-6.96-17.45-18.47-47.84-39-54c-4.9-1.46-10.38,1.28-15-2.99c-16.41,6.65-28.44,3.54-41.99-5c-7.36-4.64-14.27-16.17-25-17
		c-10.74-0.83-18.91-1.6-31-7c-3.6-0.28-2.71,3.95-6,4c-18.55-3.63-33.55-7.7-45.99-16c-10.72-1.2-18.67-3.64-28-8
		c-9.13-4.27-11.96-11.94-24.99-12c-11.68-0.05-24.61-4.07-42-4c-0.33,0-0.66,0-1,0c-10.52,3.81-23.63,5.03-28.99,14
		c-1.18-4.25,4.69-5.79,7-11c-7.23-4.2-10.32,4.33-15,6c-0.34,0-0.67,0-1,0c-17.83,5.84-29.42,17.92-37,34c-8.12,5.6-14.64,4.7-23,7
		c-1.59-0.74,0.23-4.9-2.99-4c-11.56,3.44-14.08,15.92-22,22.99c-4.9,6.77-8.16,15.17-10,25c-15.48,54.01,3.62,115.9,29,147.98
		c2.58,3.42,5.58,6.42,8.99,9c6.72,3.94,13.8,12.021,20,9c5.93,2.41,10.63,6.04,15,10c2.36,0.31,1.86,3.47,5,3
		c5.84,11.13,23.35,20.23,37.99,16c5.41,0.07,5.3,0.45,9,1c0.63,0.51,1.28,0.98,1.95,1.42c0.01,0,0.01,0.01,0.01,0.01
		c0.41,0.13,0.78,0.29,1.04,0.57c-0.01,0.03-0.01,0.05-0.02,0.07c-0.24,0.729-0.85,1.08-1.98,0.93c-2.08-0.57-3.23-2.86-5-1
		c-1.5-2.15-2.44,0.71-5-1c18.01,13.79,44.11,3.93,69,9c3.39-0.9-4.3,1.61-6,2c4.87,2.17,15.37,1.39,15.99-4
		c9.89,0.22,16.96-2.38,24-5c13.14,8.43,28.56,0.28,40-4c-7.68-3.47-17.52-0.17-26,1c1.62-2.05,4.81-2.52,7-4
		c-0.07-0.54-2.08-0.69-3.22-0.45c-0.27,0.15-0.53,0.29-0.78,0.45c0.03-0.21,0.34-0.36,0.78-0.45c12.75-6.93,36.86,0.03,49.21-10.55
		c-3.22-0.22-4.229,1.771-8,1c20.29-11.54,53.51-12.64,73-22c-8.09,1.68-16.31,1.3-29,3c12.19-10.11,27.13-17.82,42.99-23
		c13.35-4.35,19.62-13.01,34-12.99c20.189-12.14,29.359-35.31,34.99-62c3.399,11.4-4.21,20.45-4.99,31c0.55,2.261,1.55-1.21,3,1
		c-0.33,2.34-1.21,4.13-2,6c7.83-9.16,10.2-23.79,15.99-35c0.34,0,0.67,0,1,0c0-0.33,0-0.66,0-1c-0.141-4.14,0.279-7.72,2-10
		c0-0.66,0-1.33,0-2C459.87,173.6,455.49,151.26,440.95,137.98z"/>
	<path style="fill:#7A7A7A;" d="M436.95,128.98c3.2,2.8,7.08,4.92,7.99,10C441.43,136.49,438.66,133.27,436.95,128.98z"/>
	<path style="fill:#8B8B8B;" d="M438.95,121.98c-9.74-5.26-14.83-15.17-20-24.99C433.28,93.73,435.43,111.12,438.95,121.98z"/>
	<path style="fill:#8B8B8B;" d="M271.97,82.99c5.261-1.54,13.59-2.11,12.99,5C281.52,88.22,274.1,88.88,271.97,82.99z"/>
	<path style="fill:#7A7A7A;" d="M281.96,89.99c-1.72,3.05-7.21,2.42-7.99-2C277.57,87.72,278.78,89.84,281.96,89.99z"/>
	<path style="fill:#8B8B8B;" d="M439.95,261.97c0.37,3.38-1.74,4.261-3,6c-4.11,4.69-6.46,16.03-13,14.99
		C427.63,274.9,433.08,263.54,439.95,261.97z"/>
</g>
<g id="Layer_13">
	<path style="fill:#929292;" d="M432.95,172.98c2.06,8.26,0.83,28.24,5,27.99c-2.521,23.62-9.12,43.521-22,59
		c-6.15-0.17-8.46,2.04-13,6c-1.78-1.229-4.37-0.649-9-1c-15.271,19.05-42.061,26.59-61.99,40.99c-7.35-3.17-13.5,1.03-18,6
		c-0.4,2.4,4.55-0.55,3,3c-18.14,9.86-44.08,11.91-66.99,17c-9.69,9.91-30.6,2.61-40,13c6.56,0.53,12.94-4.37,17-3
		c-10.26,9.1-29.3,9.15-45.99,9c2.2-2.14,7.49-1.18,9-4c-15.99,0.68-38.55,7.43-54.02-1.93c0.01-0.021,0.01-0.04,0.02-0.07
		c-0.26-0.28-0.63-0.44-1.04-0.57c0,0,0-0.01-0.01-0.01c-0.67-0.439-1.32-0.91-1.95-1.42c-3.7-0.55-3.59-0.93-9-1
		c-8.59-3.14-21.13-0.96-27.99-7c0.56-2.08,1.56-2.12,3-1c-2.11-4.89-7.72-6.28-13-8c-3.14,0.47-2.64-2.69-5-3
		c-7.8-8.85-21.8-24.79-32-19c-2.32-0.67-2.67-3.32-5-4c1-1.33,2.71-1.96,3-4c-6.07-6.92-13.98-12.01-19.99-18.99
		c3.98,7.351,10.69,11.96,14,19.99c-1.77,0.29-3.1-4.71-4-2C11.62,262.88-7.48,200.99,8,146.98c3.57,0.85-2.57,5.16,1,6
		c2.11-14.22,12.61-20.05,17-32c1.11,4.13,1.86,2.81,4,5c2.91-6.31,5.74-0.08,11-4c0.95,3.05,2.01,5.99,2.99,9
		c6.9-0.67,3.3-8.45,0-10c-0.37-3.71-0.15-6.81,3-6.99c1.89,1.78,4.43,2.9,4,6.99c8.53-3.51,11.74-17.01,20-23.99
		c2.99-2.53,5.51-4,8-6c4.03-3.24,11.67-5.95,18-10c9.76-6.25,20.21-13.81,27.99-20c7.69-6.1,26.61-8.99,32-4
		c-7.2,4.04-14.07-5.65-19,4c10.9,2.14,19.62-2.11,30-3c23.93-2.04,30.44,9.31,48.99,16c18.76,6.76,36.98,11.58,51,22
		c-0.729,3.06,1.721,2.94,1,6c27.181,1.02,50.8,23.14,72.99,19.99c2.09,1.86,3.75,2.59,5,3c3.271-0.05,3.82-2.84,8-2
		c4.35,4.32,10.2,7.13,19.99,6c5.2-5.74,10.63-8.31,15-2c1.42-0.25,4.21-2.42,9-2c18.02,9.2,31.93,27.41,35.59,48.4
		C434.27,172.98,433.8,172.79,432.95,172.98z"/>
	<path style="fill:#929292;" d="M443.94,145.98c6.93,10.8,15.67,25.64,10,43c-3.311-0.35-1.57-5.77-2-9c-3.36-0.37-1.66,4.33-3,6
		c-1.75-0.92-3.471-1.86-3-5c0.979,0.02,0.779,1.22,1,2c2.579-6.87-4.69-7.07-3-17c4.81,3.41-1.5-10.99-2-15
		C446.48,153.52,444.67,148.7,443.94,145.98z"/>
	<path style="fill:#929292;" d="M452.94,196.98c0.619,9.949-2.921,15.729-5,22.989c-2.601-7.62,3.569-15.08,2-24.989
		C450.96,195.62,450.98,197.27,452.94,196.98z"/>
	<path style="fill:#828282;" d="M441.94,190.98c1.859-2.43,0.68,6.59,1,8.99C441.09,202.4,442.27,193.38,441.94,190.98z"/>
	<path style="fill:#828282;" d="M440.95,177.98c1.77-2.67,0.72,5.86,0.99,8C440.17,188.64,441.22,180.12,440.95,177.98z"/>
	<path style="fill:#929292;" d="M335.96,109.99c-7.39,1.28-14.3-5.39-21-8c-10.81,0.47-15.6-0.92-20-8
		C309.61,100.17,328.44,96.33,335.96,109.99z"/>
	<path style="fill:#828282;" d="M329.96,115.99c-13.57,1.64-29.25-11.23-45-14c-0.52-0.81-1.04-1.63-1-3c7.11-3.9,10.03,1.6,17,4
		C311.53,106.61,325.11,105.31,329.96,115.99z"/>
	<path style="fill:#828282;" d="M278.96,328.96c1.61,2.32-5.4,4.56-8.99,5C270.28,329.28,277.85,329.94,278.96,328.96z"/>
	<path style="fill:#929292;" d="M96.99,71.99c0.1,4.77-3.34,6-4,10c-10.1-0.43-12.26,7.07-20,9c-2.09-14.76,17.25-8.08,17-21
		c1.88-1.45,5.19-1.47,6-4C97.33,67.16,92.95,72.75,96.99,71.99z"/>
	<path style="fill:#929292;" d="M38,113.99c-2.67-2.73,1.45-7.17,4.99-7C42.87,110.87,40.05,112.04,38,113.99z"/>
	<path style="fill:#929292;" d="M36,100.99c3.06,2.17-0.96,5.63,0,9c-2.83-0.83-2.59,1.41-5,1C29.73,104.72,34.48,104.47,36,100.99z
		"/>
	<path style="fill:#828282;" d="M36,110.99c-2.76,3.24-3.01,8.99-8,9.99C27.55,114.54,32.24,113.23,36,110.99z"/>
	<path style="fill:#929292;" d="M134.98,347.96c-2.45,0.04-8.35-1.54-6-3c1.77-1.86,2.92,0.43,5,1
		C133.98,346.96,134.79,347.15,134.98,347.96z"/>
	<path style="fill:#929292;" d="M429.95,105.99c2.93,1.73,4.64,4.69,5,9C432.07,113.45,426.95,110.23,429.95,105.99z"/>
</g>
<g id="Layer_12">
	<path style="fill:#9B9B9B;" d="M361.96,133.98c-4.01,2.3-10.81-2.68-8-7C357.55,128.39,361.09,129.85,361.96,133.98z"/>
	<path style="fill:#8B8B8B;" d="M235.97,329.96c1.45,1.54,5.12,0.88,8,1c-1.75,5.13-8.46-0.42-13,1c0.15-1.85,3.39-0.62,4-2
		C235.3,329.96,235.64,329.96,235.97,329.96z"/>
	<path style="fill:#8B8B8B;" d="M197.98,340.96c-0.08-3.41,3.7-2.96,6.99-3C203.64,339.96,200.54,340.19,197.98,340.96z"/>
	<path style="fill:#9B9B9B;" d="M427.95,176.98c-1.45-2.69,1.84,11.08-1,13c-0.69-10.05-3.931-22.93,0-29
		c-4.431-8.91-7.641-19.03-18-22c-0.28,1.76,2.81,4.99,0,6c-2.66,0.51-8.3-4.54-10-5c-4.76-0.09-5.271,4.07-9,5
		c-3.2-2.03-3.521-1.14-7-2c-2.42,4.47-7.061,2.66-11,0c-0.97,1.03-1.97,2.02-3,3c-17.21-5.86-31.07-24.34-50.99-21
		c-11.94-14.8-37.69-13.01-55.99-22.99c2.641-2.2,1.601-4.3,1-8c-3.37-2.97-8.66-4.01-15-4c-15.37-13.97-44.7-13.96-58.99-29
		c-15.55-4.73-41.95,7.74-58,0c-14.91,7.23-23.85,16.6-37.99,25c-10.75,6.38-22.3,11.35-28,19c-2.19,2.94-2.03,7.09-4,10
		c-6.38,9.42-15.35,16.71-19,28.99c-1.47-0.13-3.86-1.93-6.99-3c-8.04,4.23-6.46,4.23-17,6c-7.29,17.04-18.14,42.99-11,64.99
		c0.22-0.77,0.03-1.97,1-2c4.4,35.271,11.42,67.91,38.99,79.99c-2.02-6.64-7.97-9.35-8.99-16.99c-8.49,1.48-9.6-4.41-9-12
		c5.44,2.88,7.29,9.37,12,13c0.15-1.85,3.38-0.62,3.99-2c-0.17,3.84,3.46,3.87,4,6.99c-1.42,0.39-1.68,1.21-3,0
		c9.52,17.49,24.19,29.81,37,44c0.33,0,0.67,0,1,0c17.3,11.7,45.05,18.271,64.99,24c1.6-6.63,15.3,2.21,24,1
		c0.98-1.03,1.98-2.03,3-3c11.94,4.75,22.09-13.53,36.99-9c-6.48,5.51-16.88,7.12-21.99,14c15.94,0.28,18.85-12.479,33.99-13
		c1.68-3.66,3.71-6.96,8-8c0.78,0.22,1.97,0.03,2,1c0.33,0,0.67,0,1,0c0.22-0.78,0.84-1.16,2-1c24.11,2.11,47.799-4.86,65.99-12
		c6.79-10.91,21.24-16.81,31-23c3.71,1.62,0.2,4.65,0,8c9.98-5.02,11.771-18.22,24-21c1.48,1.19,1.55,3.78,3,5
		c0.7-2.62,4.69-1.97,5.99-4c-0.79-6.99,2.21-16.5,10-17.99c-1.891,4.34-9.851,10.181-5,14.99c13.21-3.17,18.09-15.2,22-24.99
		c4.149,2.66,13.37-3.12,21-5c2.46-6.21,6.13-11.2,9-17c0.729-4.96,1.3-14.189,6-18C431.31,203.58,435.09,179.49,427.95,176.98z"/>
	<path style="fill:#929292;" d="M89.99,318.96c1.38,0.1,3.9,3.9,2,4c-3.74-0.59-5.17-3.5-8-5c-0.61-0.06-1.18-0.15-1-1
		c0-1-0.81-1.19-1-2C83.94,316.2,91.18,324.09,89.99,318.96z"/>
	<path style="fill:#8B8B8B;" d="M89.99,318.96c1.19,5.13-6.05-2.76-8-4c-0.89-0.29-4.38-2.71-2-3c3.19-0.86,3.09,1.58,5,2
		c1,0,1.19,0.81,2,1C87.28,317,89.69,316.92,89.99,318.96z"/>
	<path style="fill:#8B8B8B;" d="M32,266.97c2.89,0.44,4.55,2.101,5,5C33.85,271.77,32.19,270.11,32,266.97z"/>
</g>
<g id="Layer_11">
	<path style="fill:#A3A3A3;" d="M240.97,327.96c18.47-1.69,34.419-7.04,48.99-8c3.06-0.61,2.55-4.79,5-6
		c-3.54-4.85-10.47,4.271-14-2c0.69-3.979,5.021-4.32,8-6c14.41,11.021,23.91-9.97,40-12c0.04-1.71-0.74-2.59-2-3
		c8.34-7.32,18.74-12.58,27-19.99c5.11,5.71,22.51-5.359,21.99-18c-2.38-1.67-4.37,5.58-9,5c6.87-14.13,19.3-22.7,22-41
		c18.24-4.939-2.03-26.229-3-36.99c-1.431-0.24-5.82-0.81-7-4c2.63-2.49,1.319-8.91-3-10c-4.88,2.4,3.39,8.76,0,13
		c-1.16-0.17-1.78,0.22-2,1c-12.8-0.74-8.33-15.56-10.99-25c-3.09-10.94-12.22-15.52-19-19c-1.4,1.92,0.5,5.35,0,11
		c-21.07-9.61-36.13-33.85-68.99-34.99c-5.319-4.42-20.33-7.3-25-6c-2.93-4.31,4.01-7.29,5-11c-1.38-2.99-7.24-2.09-10-1
		c-0.48,3.15,3.07,2.26,2,6c-8.11,2.52-16.18,3.72-24,2c-0.32-2.32,0.16-3.84,1-5c-6.13-7.46-24.83-1.28-31.99-11
		c4.53-0.89,5.05-1.29,9-5c1.01,3.17,5.34-0.03,9.99,1c0.11-12.64-17.91-6.33-21.99-10c-3.31-10.64-12.17-8.81-20-7
		c-0.72,3.06,1.02,3.65,1,6c-3.35-1.08-11.42,1.23-13-4c-40.53-8-64.03,22.86-89.99,39c-8.81,17.83-23.56,28.78-25.99,51.99
		c-1.09,10.34,0.13,18.02-4,26c-10.38,0.63-11.06,16.26-9,25.99c0,0.34,0,0.67,0,1c0.65,2.641,0.2,14.261,3,18c0,0.33,0,0.67,0,1
		c0.39,4.94,4.56,6.101,7,9c10.45-9.739,2.63-29.51,3.99-43.989c9.79,7.289,10.26,23.09,9,38.989c-12.57,15.021,8.07,27.561,10,41
		c-10.06-4.229-13.79-19.14-19.99-24c-3.38,17.141,19.75,24.83,19.99,44.99c4.1,6.57,8.97,12.36,15,17c1.47-4.63,7.76-2.72,9,1
		c1,0,1.19,0.81,2,1c5.71,2.96,8.32,9.01,12,14c26.98,12.81,56.91,13.47,84.99,13c0.22-2.78,3.17-2.83,4-5
		c14.07-0.49,29.54-5.83,44.99-8c0.78,0.22,1.97,0.03,2,1c0.33,0,0.67,0,1,0c0.22-0.78,0.84-1.16,2-1c0-0.33,0-0.67,0-1H240.97z"/>
	<path style="fill:#A3A3A3;" d="M390.95,241.97c4.26,5.721-4.44,14.561-7,20C375.96,255.43,387.87,246.98,390.95,241.97z"/>
	<path style="fill:#A3A3A3;" d="M384.95,268.97c-3.2-0.2-4.32,1.67-5,4C373.89,269.98,384.6,259.75,384.95,268.97z"/>
	<path style="fill:#A3A3A3;" d="M345.96,280.96c-0.5,5.37-3.79,4.06-7,5C340.64,281.45,342.09,282.94,345.96,280.96z"/>
	<path style="fill:#929292;" d="M22,155.98c2.46-0.64,0.45,10.05-1,12C11.56,165.06,23.16,162.24,22,155.98z"/>
	<path style="fill:#929292;" d="M12,173.98c0,4.33,0,8.66,0,13c-1.17,0.16-0.84,1.82-1,3C10.29,187.56,10.58,177.58,12,173.98z"/>
	<path style="fill:#9B9B9B;" d="M232.97,328.96c-4.29,1.04-6.32,4.34-8,8c-15.14,0.521-18.05,13.28-33.99,13
		c5.11-6.88,15.51-8.49,21.99-14c-14.9-4.53-25.05,13.75-36.99,9c-1.02,0.97-2.02,1.97-3,3c-8.7,1.21-22.4-7.63-24-1
		c-19.94-5.729-47.69-12.3-64.99-24c6.21,3.31,2.13-3.03,0-5c2.83,1.5,4.26,4.41,8,5c1.9-0.1-0.62-3.9-2-4c-0.3-2.04-2.71-1.96-3-4
		c5.71,2.96,8.32,9.01,12,14c26.98,12.81,56.91,13.47,84.99,13c0.22-2.78,3.17-2.83,4-5C202.05,336.47,217.52,331.13,232.97,328.96z
		"/>
</g>
<g id="Layer_10">
	<path style="fill:#ABABAB;" d="M227.63,327.7c-12.36,1.17-20.44,7.359-31.65,7.26c-14.27-0.13-24.02,4.85-37,4
		c-22.74-1.5-44.34-1.5-56.99-19c-2,0-4,0-6,0c-5.02-3.64-10.55-6.78-14-12c0.52-1.479,1.48-2.52,2-4
		c-8.17-7.49-12.7-22.43-20-30.99c-4.54-5.33-12.45-17.68-13-24c-0.18-2.109,1.64-3.92,2-6c1.66-9.52-2.05-22.45,1-34
		c2.63-0.29,0.79,3.88,4,3c-5.71-13.609-4.98-33.68-15-42.99c0.51-5.62-0.69-11.27,0-16c2.04-13.9,18.28-31.88,26-40.99
		c2.98-6.55,6.98-12.18,14-17c3.64-2.51,8.14-2.62,12-5c9.14-5.64,21.67-20.53,33.99-18c0.06,5.61,7.19,4.15,7,10
		c-4.78,3.89-20.95,5.83-18.99,16c6.49,0.01,13.34-7.88,20.99-10c11.43,5.9,22.48-3.64,32,1c-5.43,10.44-20.62,5.72-27,12
		c4.35,6.9,9.42-1,15,0c-0.87,2.46-4.43,2.24-4,6c7.02,1.84,15.56,2.83,22,0c2.73,1.27,3.98,4.01,6,6c2.02-1.32,3.48-3.19,6-4
		c5.35-2.42,6.59,2.48,12,1c6.26-1.72,10.96-13.01,17.99-4c8.77-1.76,16.92-1.78,21,4c19.6-2.02,28.64,6.23,46.99,5
		c15.22,6.44,28.67,14.66,40,24.99c15.92,24.29,48.12,27.48,48.99,62.99c0.28,11.32-0.91,18.021,6,25
		c-5.53,9.46-10.48,19.521-17.99,27c-6.05,1.62-12.16,3.17-12,11c-3.97,2.08-8.92,3.7-10,6c-5.729,4.271-10.37,14.95-17,14.99
		c-1.729-4.78,7.1-4.15,3-8c-9.56,6.47-17.85,15.021-29,13c-0.27-1.75,2.82-4.99,0-6c-10.01,11.66-25.44,7.57-36.99,19
		c5.04,1.29,16.5-3.16,19.99-1c-4.45,4.88-9.06,8.26-7.99,14c-12.12,2.16-19.57,1.55-32,10c-1,0-2,0-3,0
		c-2.48-0.35-4.8-0.479-6.98-0.44L227.63,327.7z"/>
	<path style="fill:#ABABAB;" d="M34,186.98c-2.8,2.2-4.82,5.18-5,10c0,0.329,0,0.659,0,1c0,4.329,0,8.659,0,12.989
		c1.59,4.08,2.29,9.04,2,15c0,1,0,2,0,3c0,0.33,0,0.67,0,1c1.09,3.24,5.54,3.13,6,7C45.78,223.38,38.5,199.65,34,186.98z"/>
	<path style="fill:#ABABAB;" d="M29,197.98c0,4.329,0,8.659,0,12.989c-0.34,0-0.67,0-1,0c0-0.33,0-0.66,0-1
		C28.63,206.28,26.7,200.01,29,197.98z"/>
	<path style="fill:#9B9B9B;" d="M386.95,201.97c-0.57,3.761-1.75,6.92-6,7c-0.061-5.93-2.67-9.319-2-15.989
		C382.2,195.4,384.19,199.07,386.95,201.97z"/>
	<path style="fill:#ABABAB;" d="M383.95,219.97c3.75,0.78,0.64,4.84,0,7C380.12,226.11,382.94,221.77,383.95,219.97z"/>
	<path style="fill:#ABABAB;" d="M203.97,94.99c0.33,6.53-4.12,5.02-8.99,4C194.98,94.86,200.31,92.3,203.97,94.99z"/>
	<path style="fill:#ABABAB;" d="M188.98,93.99c1.15,6.82-5.92,5.41-7,10c-0.81-0.53-1.63-1.05-3-1
		C179.31,96.99,183,94.34,188.98,93.99z"/>
	<path style="fill:#ABABAB;" d="M177.98,77.99c1.22,6.89-5.62,5.72-9,8C165.92,80.2,170.92,76.69,177.98,77.99z"/>
	<path style="fill:#ABABAB;" d="M148.98,72.99c2.76-0.84,9.92-0.74,14,2c-0.4,7.07-11.9,6.78-18,5c-1.64-1.55,0.34-3.9,1-6
		c-1.78,0.58-11.36-1.78-13-1C129.47,65.09,150.07,62.76,148.98,72.99z"/>
	<path style="fill:#ABABAB;" d="M59.99,278.96c2.17,3.5,4.01,7.33,5,12C61.28,289.37,57.12,283.92,59.99,278.96z"/>
	<path style="fill:#9B9B9B;" d="M127.98,88.99c0.49,3.82-3.53,3.13-5,5C120.32,91.9,125.81,89.55,127.98,88.99z"/>
</g>
<g id="Layer_9">
	<path style="fill:#B4B4B4;" d="M102.98,315.84c-0.31-14.359-24.91-13-27.99-27.88c-0.25-14.55-17.67-20.22-21-34.99
		c3.95-6.729-0.98-12.67,0-22c2.04-2.01,1.96,0.44,4,1c6.41-12.33-1.78-32.35-5-48.99c-2.28-11.8-15.9-30.86-2-39
		c2.95,4.72,1.24,14.09,3,20c5.64-10.46,6.13-22.46,15-31c14.28,3.16,31.6-2.75,33-14.99c-0.43-1.96-2.86,1.63-2-3
		c-4.15,4.18-9.38,7.28-12,12.99c-6.94-5.25-12.31,1.8-17-4c-3.98,2.22-3.49,2.67-8,4c-2.47-6.5,4.29-10.53,8-13.99
		c2.04,4.41,5.16,3.26,12,0c0.15-2.49-1.57-3.1-2-5c-3.57,0.62-5.49,2.9-7,3c-1.45-7.14,9.38-10.61,13-16c3.02,3.73-2.93,7.03-3,11
		c6-1.16,8.42,0.23,12-3c7.11,5.58,6.01,9.53,13,13c4.18-1.05,1.79-2.88,3-6c10.99-3.41,15.65-3.27,22.99,1
		c8.23-9.23,15.01-2.58,26,0c1.74,5.07-4.34,2.32-4,6c0.25,1.08,1.99,0.67,2,1.99c2.15-0.84,1.61-4.38,3-5.99c2.67,0,5.33,0,8,0
		c0.13,1.79-1.23,2.1-1,4c6.43,5.55,11.47-2.83,17-1c0,1.66,0,3.33,0,4.99c12.44,0.05,36.78,17.34,46.99,1
		c-0.5-3.83-5.88-2.78-6-6.99c-7.11,12.69-26.17,7.57-32.99,0c8.72-5.57,28.18-8.94,35.99-9c10.72,10.8,26.13,5.29,38,10
		c9.07,3.59,14.12,12.33,21.99,13.99c-1.99,5.48,3.86,9.56,8,12c11.6-3.92,20.11,10.55,28,7c21.17,15.01,54.2,29,43.99,65.99
		c-3.7,1.971-4.83,6.5-5,12c0.39,3.28,2.93,4.41,4,7c-1.41,15.95-15.54,18.74-29.99,27c-11.35,6.48-21.42,11.021-30,13
		c-7.95,1.82-14.17,12.601-23,15.99c-7.94,3.06-14.08,3.25-21.99,5c-3.45,1.56-4.25,5.75-8,7c-1.56,8.22,4.53,4.33,5,9
		c-3.82,1.85-7.979,3.36-9,8c-2.32-0.32-3.84,0.16-5,1c-2.79,4.33-8.9,6.03-15.98,6.56c-1.13,0.011-2.23,0.07-3.3,0.171
		c-0.02,0.01-0.04,0.01-0.06,0.01c-7.86,0.22-16.39-0.63-22.66-0.74c-3.36,1.61,3.15,3.16,0,5c-19.71-0.95-39.45,9.17-55.99,2
		c-7.23,1.62-20.13,4.57-22-4c1.33-2.45,3.72,1.1,4-1c-3.56-4.62-14.13-6.81-19.99-12c-4.51,0.6-4.71,2.76-9-1
		C102.17,314.91,102.88,315.33,102.98,315.84z"/>
	<path style="fill:#A3A3A3;" d="M315.96,140.98c2.89,0.44,4.56,2.11,5,5C318.9,144.71,315.89,144.39,315.96,140.98z"/>
	<path style="fill:#B4B4B4;" d="M311.96,279.96c0,1.34,0,2.67,0,4c-2-0.7-4.65-0.21-5,2c-2.55-0.11-1.979-3.34-2-6
		C306.64,281.73,308.31,279.08,311.96,279.96z"/>
	<path style="fill:#B4B4B4;" d="M300.96,129.98c3.29-0.23,4.5,5.51,0,5C299.09,133.08,300.85,132.47,300.96,129.98z"/>
	<path style="fill:#A3A3A3;" d="M293.96,135.98c0.81-3.72,6.11-0.19,6,3C296.92,139.03,296.07,136.87,293.96,135.98z"/>
	<path style="fill:#B4B4B4;" d="M138.98,95.99c2.11-6.4,8.56-4.05,14-4C151.18,97.83,143.98,96.48,138.98,95.99z"/>
	<path style="fill:#B4B4B4;" d="M115.99,80.99c5.82-2.85,10.3-5.18,14.99,0c-12.57,6.19-28.54,19.56-38.99,16
		C98.76,91.02,103.55,77.98,115.99,80.99z"/>
	<path style="fill:#A3A3A3;" d="M91.99,126.98c0.57-2.76,1.06-5.6,5-5C95.14,123.47,95.49,127.15,91.99,126.98z"/>
	<path style="fill:#B4B4B4;" d="M86.99,308.96c3.61,1.39,7.25,2.75,8,7C91.59,314.36,87.36,313.59,86.99,308.96z"/>
	<path style="fill:#B4B4B4;" d="M53.99,215.97c3.41,1.57,2.73,4.261,2,8C54.41,222.22,54.65,218.64,53.99,215.97z"/>
	<path style="fill:#A3A3A3;" d="M349.96,259.97c0.74,3.4-3.69,1.65-4,4C342.88,262.1,347.11,259.22,349.96,259.97z"/>
	<path style="fill:#A3A3A3;" d="M335.96,265.97c3.73,5.62-6.95,6.63-7,9c-0.8-0.529-1.62-1.05-3-1
		C328.35,270.36,332.78,268.79,335.96,265.97z"/>
	<path style="fill:#B4B4B4;" d="M33,190.98c3.69,10.04,13.6,33.5,0,39.99c-1.73-0.609,0.07-4.739-2-5c0.29-5.96-0.41-10.92-2-15
		c0-4.33,0-8.66,0-12.989c0-0.341,0-0.671,0-1C30.63,195.27,30.65,191.96,33,190.98z"/>
	<path style="fill:#B4B4B4;" d="M156.98,75.99c0.65,3.99-3.8,2.86-7,3C150.18,74.99,154.52,75.14,156.98,75.99z"/>
</g>
<g id="Layer_8">
	<path style="fill:#BBBBBB;" d="M358.96,185.98c0.44,5.77-0.42,10.24-1,14.99c-1.44-2.729-2.52-1.149-5,0
		c2.85,7.771,1.09,14.12,3,23c-4.07-2.95-7.2,3.5-8,10c2.54,2.971,4.87-2.55,7,0c4.271,12.931-10.46,17.2-16,18
		c-6.71,15.3-23.12,16.62-39,24c-7.54,13.58-26.51,14.65-40.99,17.99c-2.27-0.729-2.99-3.01-4-5c-6.75,0.09-8.16-0.69-14,0
		c-1.97,0.7-2.67,2.67-3,5c0.19,0.81,1,1,1,2c5.74-2.02,12.53-1.05,15,3c-1.97,2.69-13.35,3.55-15-2c-6.23,1.63-8.98,1.21-15,2
		c2.88,4.41-3.46,6.74,1,10c-7.23,6.17-23.13,1.29-29.99,9c-2.99-3.88-7.5-2.33-13-2c0.91,2.09,2.95,3.05,6,3
		c0.15,2.49-1.57,3.1-2,5c3.42,0.83,4.65-0.13,9,1c1.38,7.05-5.21,6.12-11,6c-1.88-1.91,0.59-1.81,0-5c-6.71,0.7-10.97-1.03-17-1
		c-0.15,4.81,5.25,4.08,7,7c-7.47,5.48-18.21,1.16-27-2c-8.81-3.17-20.71-7.86-25-14c8.8,1.6,13.75-0.87,25,2
		c2.21-0.12,0.43-4.24,1-6c4.52,0.93,12.33-1.12,18,0c-5.13-6.46-19.97-7.34-23-3c-22.07-0.26-28-16.65-43.99-23
		c-0.27,7.6,8.92,5.75,10,12c-4.54-0.29-5.99-1.46-9,1c-0.03,2.36,1.72,2.95,1,6c-10.82-17.18-28.29-27.71-40-43.99
		c1.75-10.08-3.78-12.88-4-21c0.89-0.779,2.26-1.08,4-1c7.39-28.5-16.85-57.64,1-76.99c7.93-2.57-0.15-3.32,1-9
		c1.1-5.37,8.57-12.18,13-11c3.4,0.9,12.27-7.71,15-8c2.64-0.28,5.51,0.5,7,2c6.48-10.64,22.54-12.59,31.99-15
		c2.31,2.69,4.66,5.34,8,7c-0.24,1.09-1.99,0.68-2,2c13.27,4.96,18.2-7.91,32-8c12.03-0.07,27.6,7.33,39.99,10
		c9.67,2.09,22.97,7.66,26-4c5.68-4.97,16.43-4.02,19-1c2.3,0.31,1.11-2.88,3-3c-1.5-3.34-5.01-0.89-5-4c1.33-2.45,3.02,1.81,4-0.99
		c1.61,4.03,4.16,2.61,8,4.99c3.3,2.06,4.79,5.98,7,7c6.021,2.8,10.94,1.12,14.99,4c4.271,3.03,3.98,9.84,9,13
		c2.771,1.74,6.78-1.54,10-1c6.23,1.05,16.01,5.85,23,9c11.021,4.97,23.21,14.14,26,26C355.68,184.24,356.11,185.81,358.96,185.98z"
		/>
	<path style="fill:#ABABAB;" d="M363.95,192.98c1.18,2.949,3.06,8.96,1,11.989C362.4,203.26,360.89,194.18,363.95,192.98z"/>
	<path style="fill:#BBBBBB;" d="M357.96,212.97c3.68-0.92,1.81,5.28,1,6C356.75,218.85,358.53,214.73,357.96,212.97z"/>
	<path style="fill:#ABABAB;" d="M215.97,315.96c7.05-3.47,24.14-11.13,24,3C233.4,316.53,221.42,319.52,215.97,315.96z"/>
	<path style="fill:#BBBBBB;" d="M241.97,321.96c-1.88,7.45-15.3,2.73-21,2C221.98,316.61,238.3,317.93,241.97,321.96z"/>
	<path style="fill:#BBBBBB;" d="M222.97,110.99c1.95-3.34,11.21-2.75,10,3C227.55,115.08,226.69,111.61,222.97,110.99z"/>
	<path style="fill:#BBBBBB;" d="M205.97,317.96c0.39,3.72-4.81,1.85-4.99,5c-1.49-0.85-2.15-2.52-2-5
		C202.63,317.09,203.47,316.97,205.97,317.96z"/>
	<path style="fill:#ABABAB;" d="M149.98,119.98c0.45,2.79-5.45-0.78-5,2c-2.49-0.15-0.29-3.38,0-3.99
		C146.3,119,148.67,118.97,149.98,119.98z"/>
	<path style="fill:#ABABAB;" d="M120.98,306.96c6.03,4.22,16.63,1.48,21,9c-8.81-1.29-14.96-3.08-21-5
		C120.98,309.63,120.98,308.29,120.98,306.96z"/>
	<path style="fill:#ABABAB;" d="M114.99,301.96c0.94,2.06,5.15,0.85,4.99,4C116.73,306.22,115.17,304.77,114.99,301.96z"/>
	<path style="fill:#BBBBBB;" d="M91.99,113.99c4.81,1.18,0.35,8.51-4,6.99C86.56,115.88,91.05,116.71,91.99,113.99z"/>
	<path style="fill:#BBBBBB;" d="M32,194.98c3.96,8.8,10.9,24.93,1,30.989C32.74,215.84,26.88,204.26,32,194.98z"/>
</g>
<g id="Layer_7">
	<path style="fill:#C3C3C3;" d="M335.96,187.98c1.84,15.34,15.3,20.83,7,35.99c-0.14,0.25-1.63-1.43-2-1
		c-2.77,3.17-4.75,12.88-12,13c1.23,4.9-3.45,3.891-3,8c-2.64,0.3-2.58-2.09-3-4c-3.62,6.601-8.84,5.521-14,10
		c-0.38,3.63,4.05-0.76,3,5c-11.42,8.44-28.39,14.74-40.99,12c-1.89,1.45-5.2,1.471-6,4c4.2,11.2,13.011,7.971,19.99,8.99
		c-2.4,12.25-17.46,7.61-29.99,7c-20.53-1-38.73-13.01-49-3c-0.89-0.61-1.78-1.2-2,0c-2.66-1-3.29-4.03-4.99-6
		c-12.62-2.57-24.04,7.1-34-2.99c-3.77-0.77-4.78,1.221-8,1c0.21,5.45,7.52,3.811,8,8.99c-11.05-2.3-28.15,3.54-37,0
		c-11.81-4.72-15.88-18.03-26.99-26.99c-3.87,1.62-1.14,12.351-7,9c-1.42,6.75,3.12,7.54,5,10.99c4.19-3.37,13.1-2.49,12,7
		c-4.05-1.62-9.3-2.03-11-6c-12.62,7.49-15.91-17.27-26-21.99c-2.91,1.4,1.77,3.44,1,6c-10.39,2.17-10.19-11.189-9-19
		c2.36-15.47-10.93-47.14,2.75-52.89c0.12,0.25,0.25,0.49,0.39,0.72c0.29,2.72-1.59,3.29-1.14,6.181c0.53,3.409,4.82,1.529,7,1
		c3.27,7.39,4.82,16.5,9,22.989c1.37-16.04-4.5-33.49-7-48.99c2.04-0.3,2.66-2,4-3c-4.02-10.41,2.24-20.59,8-27
		c1.85,0.15,0.61,3.39,2,4c4.43-0.83,10.43-3.58,13-9c2.56,0.1,1.6,3.73,3,5c11.35,2.52,17.39-11.57,27.99-1
		c22.57-16.5,53.72-16.41,75.99,1c7.19,0.18,12.44-1.58,20,0c8.59,1.8,13.07,9.68,22,9c1.36-0.1,5.25-1.42,6-3
		c4.709,2.69,18.33,10.31,24.99,5c10.88,0.64,11.22,2.03,19,4c10.521-11.1,18.74,11.38,28,14c-0.32,2.32,0.16,3.84,1,5
		c3.97-0.25,9.521,1.95,8,10C336.75,186.36,338.59,190.58,335.96,187.98z"/>
	<path style="fill:#C3C3C3;" d="M338.96,236.97c1.12,4.79-2.47,4.87-3,8c-5.27-1.58-2.05-7.45,0-10
		C337.27,235.32,337.53,236.73,338.96,236.97z"/>
	<path style="fill:#C3C3C3;" d="M279.96,135.98c0.25,2.68,4.22,3.8,2,6c-2.31,1.08-9.39-0.19-7.99-6
		C275.74,137.85,276.51,135.17,279.96,135.98z"/>
	<path style="fill:#B4B4B4;" d="M270.97,143.98c2.98-1.11,9.41-1.03,8.99,6c-5.64,1.46-4.7-0.62-8.99-2
		C270.97,146.65,270.97,145.31,270.97,143.98z"/>
	<path style="fill:#B4B4B4;" d="M209.97,287.96c1.82-4.08,3.9-1.96,8-3C216.76,289.43,212.68,286.49,209.97,287.96z"/>
	<path style="fill:#B4B4B4;" d="M189.98,297.96c11.16-0.49,20.41-6.93,30.99,1c-11.31,0.55-13.49,0.72-24.99,2
		c-0.03,3.37,4.62,2.04,5.99,4c-8.76,2.74-25.07-0.979-36.99,1c-0.78-0.89-1.08-2.26-1-4c-3.78,1.7-8.04-3.65-12-5
		c7.68-7.59,16.84,6.67,25,2c1.32-2.5-3.96-3.13-1-4c2.54,1.73,3.88-1.52,4,2C183.65,295.8,186.85,298.1,189.98,297.96z"/>
	<path style="fill:#B4B4B4;" d="M204.97,289.96c2.21,3.58-8.75,5.521-8.99,0C197.98,291.09,202.61,290.09,204.97,289.96z"/>
	<path style="fill:#B4B4B4;" d="M171.98,282.96c7.76-3.15,9.25,5.19,17,5C183.99,292.66,176.21,287.09,171.98,282.96z"/>
	<path style="fill:#C3C3C3;" d="M188.98,311.96c-3.65-0.31-6.51,0.16-9,1c0.12-1.79-1.23-2.11-1-4
		C180.67,308.3,188.95,306.08,188.98,311.96z"/>
	<path style="fill:#C3C3C3;" d="M178.98,321.96c-6.67,1.79-11.51-1-17-3C165.82,314.3,174.64,315.71,178.98,321.96z"/>
	<path style="fill:#C3C3C3;" d="M134.98,318.96c2.21-1.71,9.18-1.77,8,3C140.77,323.06,136.44,323.07,134.98,318.96z"/>
	<path style="fill:#B4B4B4;" d="M144.98,298.96c-3.5-1.25-13.98,0.53-16-7C134.4,290.87,143.69,292.79,144.98,298.96z"/>
	<path style="fill:#C3C3C3;" d="M139.98,304.96c-5.71,2.25-15.95-1.71-18-9C126.78,296.67,139.96,296.29,139.98,304.96z"/>
	<path style="fill:#B4B4B4;" d="M77.99,190.98c2.72,0.51,2.2,16.75,1,8.99c-0.53-0.8-1.04-1.62-1-2.989c-0.76-2.91-4.74-2.601-4-7
		C75.32,189.83,77.71,193.34,77.99,190.98z"/>
	<path style="fill:#C3C3C3;" d="M77.99,274.97c-3.05-1.63-4.31-5.02-8-6C72.68,266.99,77.34,271.58,77.99,274.97z"/>
	<path style="fill:#B4B4B4;" d="M63.99,161.98c4.38,2.91,3.76,12.87,9,12c-2.45,9.46,0.42,13.67-1,22
		c-1.11-1.311-2.06-2.711-2.86-4.181c-0.03-0.26-0.07-0.53-0.14-0.82c-0.08,0.03-0.17,0.07-0.25,0.1
		C64.56,182.94,64.35,172.65,63.99,161.98z"/>
	<path style="fill:#C3C3C3;" d="M64.99,189.98c0.39,3.38-4.42,1.57-3,6c-1.44-2.98-2.52-0.07-5-2c0.18-5.94-2.88-12.23,2-15
		C65.44,178.19,58.16,191.14,64.99,189.98z"/>
	<path style="fill:#C3C3C3;" d="M226.97,322.96c1.75-3.16,12.2-5.17,12,1C235.01,323.59,229.39,324.88,226.97,322.96z"/>
	<path style="fill:#A3A3A3;" d="M222.97,315.96c1.3-2.72,13.94-6.12,13,1C231,317.27,226.8,316.8,222.97,315.96z"/>
	<path style="fill:#828282;" d="M517.94,182.98c0-1.01-0.82-1.19-1-2c-0.36-2.98-1.601-5.08-3-7c0-0.33,0-0.67,0-1
		c-1.431-0.24-1.69-1.65-3-2c-7.73-4.76-19.431-2.13-27,1c-0.931,3.77,2.56,3.1,2.119,6.37c0,0.01,0,0.01,0,0.01
		c-0.029,0.19-0.069,0.4-0.119,0.62c-0.131,0.01-0.25,0.02-0.36,0.05c-0.22,0.31-0.44,0.63-0.64,0.95c-0.33,0-0.671,0-1,0
		c-5.181-0.69-12.471,1.5-20,0c-1.48,1.16-2.521,1.16-4,0c-0.53,0.8-1.04,1.62-1,3c-1.771,1.89-0.73,6.6-1,10c0,0.659,0,1.329,0,2
		c2.09,1.569,5.26,2.069,9,2c0.34,0,0.67,0,1,0c2.39,0.6,7.26-1.261,8,1c-0.721,3.609-5.811,2.85-6,6.989c8.229,2.44,17.8,3.54,29,3
		c1.27-0.2,4.899-2.899,5-1c1.329,0,2.659,0,4,0c-0.46-4.79,5.659-3,6-7c1.26-1.729,3.38-2.609,3-5.989
		C518.13,191.17,518.04,187.08,517.94,182.98z"/>
</g>
<g id="Layer_6">
	<path style="fill:#CACACA;" d="M317.96,173.98c6.15,3.85,6.05,13.95,9,21c-3.76,5.649-6.47,12.779-5,20.989
		c-5.78-0.5-3.5,5.521-3,9c-2.58,0.09-1.05,4.28-5,3c-0.64,11.57-9.14,14-16,17c-12.55-2.21-23.96,11.311-32.99,19
		c-9.04,0.09-17.32-9.75-31-3c-7.67-3.63-15.62-4.05-25-6c-1.02,0.98-2.02,1.971-3,3c1.95,1.061,4.72,0.3,7,3
		c0.96,1.86-2.99,3.34,0,4c-8.62-0.16-20.48-2.6-30.99,0c-10.82,9.351-16.78-1-29-2c-3.93-5.069-7.22-10.779-14-13
		c-1.65,1.011-1.08,4.25-2,6c-2.59-0.95-9.21-1.97-14-5c-3.35,1.98-3.75,6.91-3.99,12c4.33,8.25,12.25-1.1,13.99,10
		c-4.31-1.05-3.9-2-9,0c-18.72-17.029-35.98-40.56-36.99-72c1.9-0.42,2.51-2.149,5-1.989c4.65-12.451-6.61-34.081,9-31
		c1.44-1.55,3.32-2.68,4-5c4.38-0.43,3.28,3.06,7,1c2.65-4.68,7.44-7.22,8.99-13c2.05,2.37,3.96-1.37,6,1c0.11,4.44-2.79,5.87-2,11
		c1.2,4.04,3.43,1.25,6,3c2.29,5.21,3.97,8.63,4,14c9.19-2.53,16.42-3.52,18-17c6.23-2.92,19.05,0.6,24-7c4.71,0.27,9.56-3.34,11,2
		c8.21-0.21,14.26-4.38,19.99-9c11.58-1.01,20.01,2.86,21,11c10.48-3.16,19.18,2.02,29-1c0.9,3.76,5.11,4.22,5,9
		c4.3,0.3,2.101-5.9,4-8c17.05,0.69,33.54,4.34,41.99,20C315.04,181.06,313.8,174.82,317.96,173.98z"/>
	<path style="fill:#BBBBBB;" d="M336.96,209.97c4.49-0.149,4.17,4.5,4,9C337.01,218.15,334.54,214.31,336.96,209.97z"/>
	<path style="fill:#BBBBBB;" d="M291.96,253.97c-0.62-4.739,5.13-6.149,13-5C303.24,254.24,295.9,251.63,291.96,253.97z"/>
	<path style="fill:#CACACA;" d="M235.97,274.97c6.48,1.2,8.66-3.239,16-1c-2.94,9.78-31.49,5.221-33-5
		C226.43,265.17,231.24,274.09,235.97,274.97z"/>
	<path style="fill:#CACACA;" d="M152.98,153.98c3.88-8.01,16.14-5.14,21-5C170.01,157.62,159.12,153.62,152.98,153.98z"/>
	<path style="fill:#BBBBBB;" d="M89.99,235.97c6.7,2.641,7.81,10.851,10,18C95.73,249.43,88.94,242.52,89.99,235.97z"/>
	<path style="fill:#CACACA;" d="M91.99,252.97c-7.37,1.79-12.76-10.67-17-4c-8.08-8.2-9.95-33.89-2-44
		C78.3,221.99,87.54,235.09,91.99,252.97z"/>
	<path style="fill:#CACACA;" d="M86.99,177.98c4.96,3.81-0.6,12.12-2,16C80.57,189.6,81.69,180.48,86.99,177.98z"/>
	<path style="fill:#8B8B8B;" d="M517.94,182.98c0-1.01-0.82-1.19-1-2c-0.36-2.98-1.601-5.08-3-7
		c-10.381-6.96-21.591-3.9-27.881,4.37c0,0.01,0,0.01,0,0.01c-0.029,0.19-0.069,0.4-0.119,0.62c-0.131,0.01-0.25,0.02-0.36,0.05
		c-0.22,0.31-0.44,0.63-0.64,0.95c-0.33,0-0.671,0-1,0c-7.261,2.47-10.23,1.55-19,1c-0.61-0.06-1.181-0.15-1-1
		c-1.48,1.16-2.521,1.16-4,0c-0.53,0.8-1.04,1.62-1,3c-1.771,1.89-0.73,6.6-1,10c0,0.659,0,1.329,0,2c2.09,1.569,5.26,2.069,9,2
		c0.34,0,0.67,0,1,0c-0.181-0.86,0.39-0.95,1-1c0.329,0,0.67,0,1,0c2.39,0.6,7.26-1.261,8,1c-0.45,2.88-3.54,3.119-3,6.989
		c8.159,2.38,21.52,5.44,29,0c4.02-0.01,8.369-4.91,10-4c1.26-1.729,3.38-2.609,3-5.989C518.13,191.17,518.04,187.08,517.94,182.98z
		"/>
</g>
<g id="Layer_2">
	<path style="fill:#D1D1D1;" d="M267.97,205.97c8.34,1.33,8.061,11.271,9.99,19c-1.49,1.17-4.08,1.24-4.99,3
		c-1.89-0.75-0.7-2.979-3-1c-1.359,0.311-0.83,2.5-1,4c-15.3,7.11-21.02,16.2-36,18c-2.02-2.31-1.02-7.67,1-9
		c-2.35,0.75-8.35,1.03-11,3c-1.15,0.86-0.71,3.511-4,3c-4.51-0.7-9.34-3.27-15-2c-0.02,2.36,1.73,2.94,1,6
		c-4.16,4.2-11.95,6.311-13.99-1c2.59,0.601,3.59-0.399,3-3c-13.21,1.11-26.31,4.5-42-6c1.46-2.88,2.79-5.899,0-8
		c0.83-2.51,2.92-6.79,5-5c-8.78-14.54-1.95-22.939,3-36.99c-1.33-0.46-5.85-1.6-7-5c-0.41-2.41,1.83-2.18,1-5
		c3.63,2.03,3.21-1.73,6-3c13.67,1.82,31.55-1.88,43.99,7c2.99-3.1-3.24-2.63-2.99-6c9.22-2.9,28.33-1.33,36.99,6
		c1.22-3.19,3.76,0.66,4-4c8.85,4.71,17.76,14.82,24,19.99c1.311,1.63-3.35,8.391,1,11C269.13,211.14,267.42,207.43,267.97,205.97z"
		/>
	<path style="fill:#D1D1D1;" d="M306.96,187.98c2.62-0.29,4.3,0.36,4,3C308.35,191.25,305.96,191.31,306.96,187.98z"/>
	<path style="fill:#D1D1D1;" d="M289.96,224.97c-2.5-0.17-2.42,2.24-4,3c-9.7-2.62-4.55-20.109-8-28.989
		C283.17,206.44,286.43,215.84,289.96,224.97z"/>
	<path style="fill:#D1D1D1;" d="M280.96,231.97c4.33,1.351,0.54,5.61,0,8C276.3,238.64,278.49,233.96,280.96,231.97z"/>
	<path style="fill:#D1D1D1;" d="M270.97,184.98c6.011,0.32,7.721,4.94,6.99,12C275.51,193.1,270.25,192.03,270.97,184.98z"/>
	<path style="fill:#D1D1D1;" d="M260.97,241.97c0.36,3.03-3.26,2.07-5,3c0.41-2.41-1.83-2.17-1-5
		C258.06,241.28,258.85,239.18,260.97,241.97z"/>
	<path style="fill:#C3C3C3;" d="M165.98,251.97c-1.81,1.3-6.14-1.26-7-4C160.8,246.65,165.81,248.54,165.98,251.97z"/>
	<path style="fill:#C3C3C3;" d="M146.98,182.98c4.37,2.08,4.6,10.28,2,14c-6.43-1.221-5.43-5.46-5-12
		C145.69,185.02,146.57,184.23,146.98,182.98z"/>
	<path style="fill:#C3C3C3;" d="M144.98,207.97c3.04,0.32,4.06,5.65,2,8C143.87,215.75,145.29,211,144.98,207.97z"/>
	<path style="fill:#D1D1D1;" d="M99.99,176.98c2.33,0.64,5.67,0.2,5,6c-2.41-0.41-2.18,1.82-5,1
		C98.56,182.64,98.56,178.31,99.99,176.98z"/>
	<path style="fill:#C3C3C3;" d="M142.98,235.97c-1.71,0.21-2.59-1.7-3,0c-5.09-7.569-7.79-17.54-8-30
		c-5.42-1.729-18.13-7.09-10-12.989c0.34,0,0.67,0,1,0c-0.77,0.89-1.07,2.25-1,4c0.1,2.56,3.91,1.43,4,3.989
		c9.44-2.33,0.36-20.77-6-12.99c-0.16,1.16,0.23,1.78,1,2c0.9,0.44,1.79,0.87,2,2c-0.81-0.19-0.99-1.01-2-1c-0.33,0-0.66,0-1,0
		c-3.5-6.46-10.19-2.92-15.99-4c-0.16-2.49,1.57-3.1,2-5c1.7,0.41-0.21,1.29,0,3c3.14,0.48,3.91-1.43,6-2c-0.06-1.28-1.29-1.39-1-3
		c-0.26-2.34-4.4-0.58-5,0c-0.53-10.12,14.43-9.64,14.99-1c-4.34-1.01-4.45,2.21-5.99,4c0.52,0.8,1.04,1.62,1,3
		c4.86-3.68,4.56-1.05,11.99-1c-0.48,4.48,3.54,4.46,4,8c3.99-0.55,3.01-0.55,7,0C142.51,208.94,141.19,218.66,142.98,235.97z
		 M138.98,223.97c0.35-4.02-0.01-7.31-3-8C136.69,218.93,136.26,223.03,138.98,223.97z"/>
	<path style="fill:#D1D1D1;" d="M120.98,190.98c1.48,5.74-8.73-0.5-8.99,3c-1.76-0.24-2.28-1.721-2-4c3.13-2.63,6.66,0.73,9.99,1
		C120.32,190.98,120.65,190.98,120.98,190.98z"/>
	<path style="fill:#929292;" d="M517.94,182.98c0-1.01-0.82-1.19-1-2c-14.19-21.8-29.591,11.34-52,0c-0.61-0.06-1.181-0.15-1-1
		c-1.48,1.16-2.521,1.16-4,0c-0.53,0.8-1.04,1.62-1,3c-1.771,1.89-0.73,6.6-1,10c0,0.659,0,1.329,0,2c3.71,0.84,9.479,0.739,11,1
		c0.329,0,0.67,0,1,0c2.79-1.211,8.88-2.74,10,0c0.409,2.399-1.83,2.17-1,4.989c6.25,4.391,16.14,6.521,25,3
		c4.02-0.01,8.369-4.91,10-4c1.26-1.729,3.38-2.609,3-5.989c-2.48-0.971,1.369-3.84,0-7c0-0.67,0-1.34,0-2
		C516.77,183.81,517.16,183.2,517.94,182.98z"/>
</g>
<g id="Layer_3">
	<path style="fill:#BBBBBB;" d="M120.98,189.98c-0.77-0.22-1.16-0.84-1-2c6.36-7.78,15.44,10.66,6,12.99
		c-0.09-2.56-3.9-1.43-4-3.989c-0.07-1.75,0.23-3.11,1-4c0-0.341,0.011-0.239,0-1S120.98,189.98,120.98,189.98z"/>
	<path style="fill:#BBBBBB;" d="M110.99,179.98c-0.29,1.61,0.94,1.72,1,3c-2.09,0.57-2.86,2.48-6,2c-0.21-1.71,1.7-2.59,0-3
		c0-0.67,0-1.34,0-2C106.59,179.4,110.73,177.64,110.99,179.98z"/>
	<path style="fill:#929292;" d="M517.94,182.98c0-1.01-0.82-1.19-1-2c-14.19-21.8-29.591,11.34-52,0c-0.61-0.06-1.181-0.15-1-1
		c-1.48,1.16-2.521,1.16-4,0c-0.53,0.8-1.04,1.62-1,3c-1.771,1.89-0.73,6.6-1,10c7.81,1.47,16.06,0.949,24,0
		c-0.471,8.579,8.71,13.31,15,5c3.02,2.119-2.87,3.72-3,5.989c9.88,0.471,22.22-5.04,23-16.99c0-0.67,0-1.34,0-2
		C516.77,183.81,517.16,183.2,517.94,182.98z"/>
</g>
<g id="Layer_4">
	<path style="fill:#B4B4B4;" d="M127.98,192.98c0-0.341,0-0.67,0-1c0.49-3.82-3.53-3.13-5-5c-1.23,0.43-2.05,1.28-2,3
		c0.9,0.44,1.79,0.87,2,2c0.34,0,0.67,0,1,0c0,0.66,0,1.33,0,2c-2.87,1.67,1.86,4.039,4,4C127.39,196.2,130.91,193.82,127.98,192.98
		z"/>
	<path style="fill:#9B9B9B;" d="M516.94,184.98c0,0.66,0,1.33,0,2c-0.78,11.95-13.12,17.46-23,16.99c0.13-2.27,6.02-3.87,3-5.989
		c-6.29,8.31-15.471,3.579-15-5c-7.94,0.949-16.19,1.47-24,0c0.27-3.4-0.771-8.11,1-10c7.27-1.23,12.369,2.23,20,2
		C495.82,184.46,510.07,166.57,516.94,184.98z"/>
</g>
<g id="Layer_5">
	<path style="fill:#ABABAB;" d="M127.98,192.98c0.76,3.409-3.82,3.899-4,1c0-0.671,0-1.341,0-2c-0.23-1.43-1.64-1.69-2-3
		c4.36-1.36,3.62,2.38,6,3C127.98,192.31,127.98,192.64,127.98,192.98z"/>
	<path style="fill:#BBBBBB;" d="M135.98,215.97c2.99,0.69,3.35,3.98,3,8C136.26,223.03,136.69,218.93,135.98,215.97z"/>
	<path style="fill:#A3A3A3;" d="M510.94,183.98c3.359,6.41-1.171,16.65-6,15c-2.521-1.011,0.79-4.431,3-4
		c-1.021-4.05-1.431-5.51-2-10C508.29,183.69,507.8,185.11,510.94,183.98z"/>
	<path style="fill:#A3A3A3;" d="M496.94,187.98c3.439,8.73-6.381,9.04-11,8C482.81,187.14,493.69,184.28,496.94,187.98z"/>
</g>
</svg>
